<svg id="Ebene_1" data-name="Ebene 1" xmlns="http://www.w3.org/2000/svg" viewBox="0 0 113.41 105.43"><defs><style>.cls-1{fill:#fff;}</style></defs><title>Herz</title><path class="cls-1" d="M113.56,117H.15V11.53H113.56Zm-55-79c-.07-.12-.22-.32-.34-.53-5.2-8.55-12.74-13.16-22.8-13.42a26.49,26.49,0,0,0-26.88,24c-.9,10,2.72,18.34,10.35,24.72,4.93,4.12,10.29,7.75,15.53,11.49A80.94,80.94,0,0,1,57.67,109.1c.31.53.66,1,1,1.53.17-.09.25-.11.29-.16.32-.49.65-1,.95-1.49A77,77,0,0,1,79.67,86.89C85,82.91,90.44,79,95.83,75.12c6.74-4.91,11.42-11.18,12.92-19.56a26.73,26.73,0,0,0-45.17-23.7A78.91,78.91,0,0,0,58.6,38Z" transform="translate(-0.15 -11.53)"/><path d="M58.6,38a78.91,78.91,0,0,1,5-6.15,26.73,26.73,0,0,1,45.17,23.7c-1.5,8.38-6.18,14.65-12.92,19.56C90.44,79,85,82.91,79.67,86.89A77,77,0,0,0,59.9,109c-.3.51-.63,1-.95,1.49,0,0-.12.07-.29.16-.33-.5-.68-1-1-1.53A80.94,80.94,0,0,0,34.46,84.27c-5.24-3.74-10.6-7.37-15.53-11.49C11.3,66.4,7.68,58.1,8.58,48.06a26.49,26.49,0,0,1,26.88-24c10.06.26,17.6,4.87,22.8,13.42C58.38,37.69,58.53,37.89,58.6,38Z" transform="translate(-0.15 -11.53)"/></svg>