<svg id="Ebene_1" data-name="Ebene 1" xmlns="http://www.w3.org/2000/svg" viewBox="0 0 106.35 87.07"><title>10000_Online-Termine_im_Monat</title><path d="M57.13,31.77h48.68a4.44,4.44,0,0,1,4.33,3.72,9.14,9.14,0,0,1,.11,1.37V93.61q0,3.15,0,6.3a4.57,4.57,0,0,1-1.14,3.1,4.39,4.39,0,0,1-3.34,1.53c-2.24,0-4.47,0-6.71,0H21.61c-4.43,0-8.86,0-13.28,0a4.34,4.34,0,0,1-4.27-3.46,8.21,8.21,0,0,1-.15-1.92q0-18.33,0-36.65V36.7a5.12,5.12,0,0,1,.54-2.46,4.31,4.31,0,0,1,3.94-2.46c1.91-.05,3.83,0,5.74,0h43Zm46.31,6.68H50.09l-39.27,0-.06,0-.06,0V97.78h92.74Z" transform="translate(-3.9 -31.75)"/><path d="M48.34,106.06H65.81l3.08,7.61H80.66a2.72,2.72,0,0,1,2,.83,2.36,2.36,0,0,1,.53,2.73A2.4,2.4,0,0,1,81,118.8c-.85,0-1.71,0-2.56,0H33.35A2.54,2.54,0,0,1,32,114.06a3.13,3.13,0,0,1,1.59-.4h11.7Z" transform="translate(-3.9 -31.75)"/><path d="M86.9,88.24l-2.84,6.82L77,74.9l20.06,7.32L90.3,84.94l6.1,6.18L93,94.44Z" transform="translate(-3.9 -31.75)"/><path d="M31.1,48.22v3.31a3.37,3.37,0,0,0,6.68.68,5.65,5.65,0,0,0,.06-1c0-1,0-2,0-3H61.5v3.39a3.4,3.4,0,0,0,2.71,3.27,3.32,3.32,0,0,0,3.76-2,4.26,4.26,0,0,0,.27-1.33c0-1,0-2,0-3v-.3l.15,0c1.46,0,2.93,0,4.38,0a4.16,4.16,0,0,1,3.84,3.36,5.34,5.34,0,0,1,.1,1c0,3.89,0,7.79,0,11.69V88.57A4.26,4.26,0,0,1,75,92.13a4,4,0,0,1-2.49.85H27a4.15,4.15,0,0,1-4.07-2.82,4,4,0,0,1-.25-1.36q0-13.44,0-26.89v-9.3a4.23,4.23,0,0,1,1.95-3.73,3.93,3.93,0,0,1,2.25-.67H31.1ZM26,58.37c0,.08,0,.12,0,.16,0,3.27,0,6.54,0,9.8,0,2.63,0,5.26,0,7.89q0,6.18,0,12.37a1,1,0,0,0,1,1c1.8,0,3.61,0,5.41,0h40a.87.87,0,0,0,.91-.91V58.37Z" transform="translate(-3.9 -31.75)"/><path d="M63.2,48.22c0-1.12,0-2.24,0-3.36a1.66,1.66,0,0,1,1.45-1.71,1.68,1.68,0,0,1,1.83,1.15,1.82,1.82,0,0,1,.09.56v6.7a1.67,1.67,0,0,1-1.71,1.72,1.66,1.66,0,0,1-1.66-1.72C63.19,50.45,63.2,49.33,63.2,48.22Z" transform="translate(-3.9 -31.75)"/><path d="M36.16,48.21v3.28a1.68,1.68,0,0,1-2.33,1.66,1.55,1.55,0,0,1-1-1.49c0-2.29,0-4.58,0-6.87a1.69,1.69,0,0,1,3.37,0c0,1.13,0,2.26,0,3.39Z" transform="translate(-3.9 -31.75)"/><path d="M33.19,80.3H36a.88.88,0,0,1,1,1v3.94a.9.9,0,0,1-1,1H30.39a.87.87,0,0,1-1-1c0-1.33,0-2.66,0-4,0-.66.3-1,1-1Z" transform="translate(-3.9 -31.75)"/><path d="M55.18,80.3H58a.88.88,0,0,1,1,1v3.94a.9.9,0,0,1-1,1H52.39a.9.9,0,0,1-1-1v-4a.88.88,0,0,1,1-1Z" transform="translate(-3.9 -31.75)"/><path d="M44.17,86.24H41.41a.91.91,0,0,1-1-1c0-1.32,0-2.65,0-4a.83.83,0,0,1,.92-.93h5.75a.84.84,0,0,1,.92.93c0,1.36,0,2.72,0,4.08a.86.86,0,0,1-.91.93C46.1,86.25,45.13,86.24,44.17,86.24Z" transform="translate(-3.9 -31.75)"/><path d="M44.18,76.93h-2.9a.84.84,0,0,1-.9-.9q0-2.06,0-4.11a.84.84,0,0,1,.9-.9h5.81a.82.82,0,0,1,.89.9c0,1.38,0,2.76,0,4.13a.83.83,0,0,1-.87.88Z" transform="translate(-3.9 -31.75)"/><path d="M55.2,71h2.88a.85.85,0,0,1,.9.88V76a.86.86,0,0,1-.93.89H52.28a.84.84,0,0,1-.92-.89V71.91a.83.83,0,0,1,.91-.89Z" transform="translate(-3.9 -31.75)"/><path d="M33.19,76.93H30.31a.81.81,0,0,1-.9-.89q0-2.06,0-4.11a.82.82,0,0,1,.93-.91h5.72A.85.85,0,0,1,37,72v4a.87.87,0,0,1-1,1Z" transform="translate(-3.9 -31.75)"/><path d="M66.15,76.93H63.28a.83.83,0,0,1-.93-.9c0-1.38,0-2.76,0-4.13a.82.82,0,0,1,.9-.88h5.82a.81.81,0,0,1,.87.84v4.25a.81.81,0,0,1-.83.82Z" transform="translate(-3.9 -31.75)"/><path d="M55.15,67.64H52.31a.85.85,0,0,1-1-1v-4a.85.85,0,0,1,.92-.92h5.17a6.94,6.94,0,0,1,.79,0,.82.82,0,0,1,.74.84c0,1.4,0,2.8,0,4.19a.85.85,0,0,1-.9.87Z" transform="translate(-3.9 -31.75)"/><path d="M44.19,67.64H41.34a.87.87,0,0,1-1-1v-4a.88.88,0,0,1,.94-.94h5.75a.89.89,0,0,1,.93.93c0,1.36,0,2.72,0,4.08a.84.84,0,0,1-.92.91Z" transform="translate(-3.9 -31.75)"/><path d="M66.14,67.64H63.3a.85.85,0,0,1-.95-.94q0-2,0-4.05a.85.85,0,0,1,.93-.93H69a.83.83,0,0,1,.91.92v4.1a.81.81,0,0,1-.9.89c-1,0-1.93,0-2.9,0Z" transform="translate(-3.9 -31.75)"/></svg>