<svg id="Ebene_1" data-name="Ebene 1" xmlns="http://www.w3.org/2000/svg" viewBox="0 0 780.65 774.52"><title>20000_Kunden_im _Monat</title><path d="M103.25,2.3c10.82,0,21-.28,31.11.05C181.67,3.87,215,26.5,234.4,69.51a85.75,85.75,0,0,1,7.73,38c-8.44-.64-16.46-1.74-24.48-1.77-25.48-.13-44.62,19.14-44.65,44.5,0,18.83-.15,37.67,0,56.5.05,4.47-1.11,6-5.85,6-18.49-.24-37-.09-55.49,0-27.28.08-45.31,18.64-45.88,46-.38,18,4.89,32.76,20.24,43a38.35,38.35,0,0,0,21.66,6.56c20,.05,40,.32,60,.24,4.27,0,5.34,1.52,5.31,5.53-.14,18.67-.2,37.34.09,56,.1,6.23,1.33,12.44,2.11,19.24-1.36.09-3.1.31-4.85.31q-140.74,0-281.48,0c-11.68,0-18.08-3.85-20.42-12.23a22.09,22.09,0,0,1-.7-5.91q-.06-132.73,0-265.48C-132.1,57.84-92.08,11.2-44.63,4.46-29.56,2.32-14.1,2.76,1.19,2.4c4.22-.09,6-.91,5.7-5.51-.41-7.31.08-14.67-.32-22a7.63,7.63,0,0,0-3.36-5.1c-6-3.63-12.53-4.31-19.56-4.38-33.32-.33-66.65-.81-99.94-2.09-11.72-.45-23.46-2.76-35-5.23-8.68-1.85-10.27-5.06-6-12.84a144.59,144.59,0,0,1,17-24.45c13.49-15.6,26-31.69,33.47-51.15a175.2,175.2,0,0,0,11.87-60c.26-12.82.43-25.68-.22-38.48-.43-8.43-2.83-16.73-3.57-25.16-1.9-21.55,1.13-42.3,12.5-61.12,12.76-21.11,32.51-29,56.48-23.33a9.89,9.89,0,0,0,7.26-1.32c5.62-4.1,10.63-9,16.16-13.26,10.41-8,20.54-16.49,31.66-23.36,18.23-11.25,38.23-9.57,58.23-5.59,27.38,5.46,53.43,14.38,76.49,30.48,36.16,25.23,51.39,59.57,48.66,104-2.08,33.89-3.42,68.21,6,101.8A175.79,175.79,0,0,0,255.15-73c5.86,6.36,11.73,12.78,17,19.6,4.69,6,3.75,9.55-3.67,11.1-12.5,2.61-25.22,5.19-37.92,5.64-36.45,1.29-73,1.31-109.42,2.37-5.51.16-11,3.16-16.37,5.07-.76.27-1.47,1.85-1.48,2.84C103.21-17.08,103.25-7.78,103.25,2.3ZM57.37,91.09c19.66,0,39.32.06,59,0,8.91,0,15-6.06,15.06-14.62.1-8.12-5.9-14.22-14.76-14.27q-58-.29-116-.18a21.64,21.64,0,0,0-10,2.49c-5.71,3.12-7.78,10-5.83,16.57,1.78,6,7.12,10,14,10C18.38,91.14,37.87,91.09,57.37,91.09Zm.47,29.48c-19.82,0-39.63-.1-59.44,0-8.86.06-14.49,6.51-14.25,15.74.17,6.77,7.44,13.85,14.06,13.72,10.45-.21,20.9-.54,31.35-.56,28.31,0,56.63.07,84.94,0a23.48,23.48,0,0,0,8.29-1.2,14,14,0,0,0,8.45-15.85c-1.41-7.18-6.63-11.85-13.94-11.89C97.48,120.49,77.66,120.56,57.84,120.57Z" transform="translate(333.46 384.96)"/><path d="M-98.63-5.27c-3.54,2.63-7.18,5.15-10.6,7.93-35.17,28.53-52.14,65.64-52.11,110.76q.08,118,.15,236c0,12.92.5,25.84.78,39.2-.34,0-1.79.18-3.23.18q-75.49,0-151,0c-12.81,0-18.82-6.17-18.82-19.07q0-123,0-246c0-54.62,36.43-98.78,90.21-107.86,13.82-2.33,28.22-1.26,42.36-1.64,6.38-.17,6.41,0,6.43-6.64,0-8,.19-16-.17-24a7.1,7.1,0,0,0-3.27-5.21C-238-40.17-264.23-71.41-281-111.49a40.73,40.73,0,0,0-4.1-6.71c-6.34-9.36-13.21-18.4-19-28.1-7.73-13-5.82-25.67,4.12-36.85,3.19-3.58,3.46-6,.82-10.18-7.86-12.28-10.64-26.25-10.83-40.53-.37-27.68,6.64-53.42,22.5-76.38,6.6-9.57,14.66-17.67,25.2-23,9.14-4.65,18.74-6,28.61-3.41,3.84,1,5.89-.08,8.58-2.64,8.78-8.38,17.56-16.83,27-24.38,21.85-17.42,46.63-24.86,74.4-18.82,16.88,3.67,33.55,8.33,50.29,12.64a63.47,63.47,0,0,1,7.1,2.8,15.39,15.39,0,0,1-2.68,1.84c-23.73,8.65-39.3,25.62-49,48.39-11.85,27.81-12.38,56.6-6.89,85.86a65.7,65.7,0,0,1,.89,11.9c.06,19,.79,38-3.25,56.75-4.79,22.24-15.4,41.19-30,58.44a329.34,329.34,0,0,0-25.34,34.52,36.54,36.54,0,0,0-5.87,24.85c2.37,16.73,13.24,26,28.55,30.59,17.53,5.28,35.72,6.09,53.85,7.1,2.29.13,4.59,0,6.88,0Z" transform="translate(333.46 384.96)"/><path d="M273,388.6c3.8-20.23,1.25-40.08,2-59.83.17-5,.26-10,0-15-.25-4.23,1.46-5.44,5.5-5.39q25.49.27,51,.13c22.24-.09,40.36-14.44,43.57-36.35,3.14-21.53.6-38.66-19.28-52.44a40.74,40.74,0,0,0-23.57-7.1c-16.67,0-33.33,0-50,0-7.16,0-7.16,0-7.17-7,0-33.16.65-66.34-.24-99.47-1.22-45.66-21.35-81.72-58.3-108.45-1.32-.95-2.62-1.93-5.24-3.87,3.52-.33,5.66-.48,7.79-.73,17-2,34.11-3.38,51-6.24,12.37-2.11,22.75-8.55,28.84-20.25a31.89,31.89,0,0,0,2.33-23.77c-3.47-12.83-10.44-23.69-18.78-33.79-7-8.47-14.32-16.69-21-25.41-13.53-17.7-20.52-38.19-22.43-60.07-1.45-16.72-1.23-33.61-1-50.41.09-7.08,2.37-14.1,3.11-21.21,2.71-26-.31-51.21-12.11-74.91-10.07-20.22-25.19-35-46.8-42.55a14.52,14.52,0,0,1-1.93-1.11,26,26,0,0,1,3.37-2c24-9.2,48.72-15,74.4-15.86,17.7-.6,33.51,6.05,47.39,16.23,11.89,8.72,22.61,19.05,33.6,29,2.57,2.31,4.39,3.49,8.14,2.59,18.54-4.42,33.31,3,45.69,16.06,16.71,17.67,25.55,39.3,29.11,63,1.6,10.59,1.39,21.52,1.28,32.29-.13,12.13-4.78,23.07-11,33.28-1.71,2.81-2.06,4.56.27,7.33,12.33,14.73,13.34,24.69,3.95,41.5a122.76,122.76,0,0,1-12.57,18.59c-5.5,6.62-9.34,14-12.92,21.69C374-66.61,348.45-38.66,311.63-21.82c-2.75,1.26-3.56,2.89-3.51,5.74.15,8.5.23,17,0,25.49-.11,3.76,1.1,4.85,4.81,4.87,13.15.06,26.4-.46,39.43.92,47.82,5.08,86.72,43.12,93.67,90.86a109,109,0,0,1,1.11,15.42q.14,62.49.05,125,0,61.21,0,122.43c0,14.22-5.69,19.92-20,19.93H277.75C276.28,388.82,274.81,388.69,273,388.6Z" transform="translate(333.46 384.96)"/><path d="M239.85,242h8.49c27-.1,54-.25,81-.28,12.54,0,17.55,5.1,17.56,17.59,0,1.83.05,3.67,0,5.5-.32,9.24-6,14.78-15.27,14.78-28.49,0-57,.11-85.47-.14-5,0-6.52,1.28-6.48,6.39.24,28,.16,56,.09,84,0,11.75-5.12,16.74-16.75,16.86l-2,0c-14.57.08-19.16-4.5-19.15-18.95q0-40.72,0-81.47c0-6.6,0-6.63-6.4-6.63q-42,0-84,.1c-11,0-16.18-5.54-16.64-16.6-.61-14.45,2.89-21.71,20.89-21.31,26.81.59,53.64-.12,80.46-.07,4.28,0,5.79-1.18,5.76-5.64-.18-27.66-.08-55.32-.11-83,0-13.69,4.66-18.47,18.17-18.49,1.17,0,2.34,0,3.5,0,10.94.23,16.22,5.49,16.26,16.42q.12,32,.12,64C239.86,223.68,239.85,232.32,239.85,242Z" transform="translate(333.46 384.96)"/></svg>