<svg id="Ebene_1" data-name="Ebene 1" xmlns="http://www.w3.org/2000/svg" viewBox="0 0 42.53 26.49"><title>200_Mitarbeiter</title><path d="M70,46.39c-1-1.92-.81-3.25.47-4.1a2.52,2.52,0,0,1,3.31.44c1,1.1.84,2.38-.4,3.88a.48.48,0,0,0,.16.13c2.25.72,2.28.71,3.21,3.21a18.12,18.12,0,0,1,.69,7.32,1,1,0,0,1-1,1c-.53,0-.91-.45-.92-1.14,0-1.18,0-2.36,0-3.53,0-.85-.22-1.68-.33-2.52l-.27,0v15c0,.32,0,.63,0,.94a1.4,1.4,0,0,1-1.28,1.32,1.41,1.41,0,0,1-1.52-1.19A6.11,6.11,0,0,1,72,66.1v-9l-.3,0a9.24,9.24,0,0,0-.11.92v8.12a9.38,9.38,0,0,1,0,1.06,1.34,1.34,0,0,1-1.25,1.2,1.36,1.36,0,0,1-1.45-1,5.45,5.45,0,0,1-.13-1.4c0-5.22,0-10.44,0-15.66,0-.42,0-.84,0-1.19-.66-.46-1-.07-1.55.26V66.05a6.67,6.67,0,0,1-.06,1.18,1.36,1.36,0,0,1-1.33,1.12,1.33,1.33,0,0,1-1.34-.95,5,5,0,0,1-.14-1.28c0-2.63,0-5.26,0-7.89,0-.38,0-.76-.05-1.14H64c0,.37-.05.73-.05,1.09V66a6.62,6.62,0,0,1-.07,1.18,1.38,1.38,0,0,1-1.49,1.21A1.33,1.33,0,0,1,61.08,67C61,66.22,61,65.39,61,64.57q0-7.24,0-14.48c0-.59,0-1.11-.77-1.36l-1,.62V66a5.7,5.7,0,0,1-.06,1.17,1.45,1.45,0,0,1-1.46,1.14,1.42,1.42,0,0,1-1.34-1.26,7.38,7.38,0,0,1,0-.94c0-2.67,0-5.34,0-8,0-.36,0-.73,0-1.1h-.28c0,.36-.07.72-.07,1.08V66c0,.24,0,.48,0,.71,0,1-.61,1.66-1.46,1.64s-1.41-.7-1.42-1.81V49.37l-.94-.63c-.72.15-.82.67-.82,1.32,0,4.32,0,8.63,0,12.95,0,1.14,0,2.27,0,3.41a3.68,3.68,0,0,1-.07.82,1.39,1.39,0,0,1-2.71,0,6,6,0,0,1-.1-1.28q0-3.88,0-7.77a2,2,0,0,0-.28-1.13c0,.37,0,.75,0,1.12,0,2.59,0,5.18,0,7.77a5.71,5.71,0,0,1-.08,1.17A1.4,1.4,0,0,1,45.31,67a9.38,9.38,0,0,1,0-1.06q0-7.59,0-15.19V49.41c-.49-.36-.87-.71-1.55-.31,0,.37-.06.79-.06,1.2q0,7.83,0,15.66a6.18,6.18,0,0,1-.09,1.29,1.39,1.39,0,0,1-1.47,1.09A1.36,1.36,0,0,1,40.83,67c0-.31,0-.63,0-.94,0-2.63,0-5.26,0-7.89,0-.37,0-.75-.05-1.13l-.26,0a9,9,0,0,0-.09.91c0,2.7,0,5.41,0,8.12a5.45,5.45,0,0,1-.13,1.28,1.35,1.35,0,0,1-1.43,1,1.36,1.36,0,0,1-1.27-1.18,6.27,6.27,0,0,1,0-1.06v-15l-.26,0c-.12.83-.29,1.66-.33,2.5-.06,1.13,0,2.27,0,3.41,0,.8-.34,1.26-.9,1.28s-1-.43-1-1.2a19.12,19.12,0,0,1,.46-6.31,20.71,20.71,0,0,1,1.1-2.83,1.8,1.8,0,0,1,.89-.69,16.17,16.17,0,0,1,1.66-.57c-1.3-1.6-1.42-2.91-.37-4a2.53,2.53,0,0,1,3.32-.32c1.21.88,1.35,2.21.39,4a7,7,0,0,0,3.94.05,15.4,15.4,0,0,1-.57-2.1,2.12,2.12,0,0,1,1-1.92,2.49,2.49,0,0,1,3.24.11c1,.92,1.11,2.07.12,4h4.27c-1-1.92-.91-3.16.17-4.06a2.54,2.54,0,0,1,3.25,0c1.1.9,1.19,2.17.17,4.07h4.27c-1-2.07-.9-3.26.29-4.14a2.52,2.52,0,0,1,3.25.16c1,1,1.08,2.27.07,3.83A7.47,7.47,0,0,0,70,46.39Z" transform="translate(-34.95 -41.86)"/></svg>