<svg id="Ebene_1" data-name="Ebene 1" xmlns="http://www.w3.org/2000/svg" viewBox="0 0 32.53 38.43"><defs><style>.cls-1{fill:none;stroke:#1d1d1b;stroke-miterlimit:10;}.cls-2{fill:#1d1d1b;}</style></defs><title>betriebliche Altersvorsorge</title><path d="M46.3,58.3a8.2,8.2,0,0,0-.76-.32,1.93,1.93,0,0,0-1-.17c-.2,0-.3.5-.4.78s-.38.51-.82.36c-1.54-.5-3.08-1-4.64-1.42-.54-.15-.61-.44-.48-.87.22-.76.47-1.51.7-2.26.73-2.38,1.45-4.76,2.18-7.13.3-1,.32-1,1.32-.67,1.36.4,2.72.81,4.08,1.24.83.26.82.27.64,1.16,0,.15-.07.29-.13.53h9.46c.64,0,.81.2.69.77a.68.68,0,0,1-.42.44,2.85,2.85,0,0,1-.83,0c-2.82,0-5.65,0-8.47,0a1,1,0,0,0-1.15.85c-.39,1.37-.84,2.72-1.27,4.07-.15.48-.08.77.48,1a10.47,10.47,0,0,0,6,.2,2.14,2.14,0,0,1,1.37,0c1.08.37,2.18.68,3.28,1,.82.23,1.45-.05,1.64-.68s-.26-1.15-1.13-1.37-2-.48-3-.72a7.41,7.41,0,0,1-.8-.25c-.5-.18-.3-.59-.24-.9s.33-.41.65-.33c1.84.46,3.7.85,5.51,1.39a4,4,0,0,1,3,3.65,3.62,3.62,0,0,0,.66,2.12,5.93,5.93,0,0,0,1,.66c-.14-1.17-.24-2.07-.36-3-.08-.63-.18-1.26-.31-1.88-.09-.44.07-.65.49-.76s.68,0,.75.46c.25,1.77.56,3.52.76,5.29a1.08,1.08,0,0,1-1.42,1.12,9.89,9.89,0,0,1-1.29-.46V78.81c0,.32,0,.64,0,1s-.16.57-.57.57-.7-.11-.67-.6c0-.28,0-.55,0-.83,0-5.62,0-11.23,0-16.84a32.49,32.49,0,0,0-.31-3.55,3,3,0,0,0-1.19-1.84l-.1.17A5.64,5.64,0,0,0,59,60.39a3.36,3.36,0,0,1,0,.84V78.9c0,.32,0,.64,0,1s-.31.47-.66.48-.53-.12-.52-.48,0-.64,0-1V61.83a7.84,7.84,0,0,0-.05-1.19,2.37,2.37,0,0,0-.34-1.23c-.19-.22-.73-.08-1.1-.18-1.1-.3-2.2-.64-3.29-1-1.43-.45-2-.16-2.5,1.28a4.6,4.6,0,0,0-.24,1.27A2,2,0,0,1,49,62.65,2.24,2.24,0,0,1,46.47,62a2.54,2.54,0,0,1-.38-1.08,5.3,5.3,0,0,1,0-1.32C46.11,59.2,46.22,58.77,46.3,58.3Zm-4-10.37c-.79,2.56-1.55,5-2.32,7.5a4,4,0,0,1-.15.45c-.13.36-.05.62.33.74.79.25,1.58.5,2.37.71.38.11.62,0,.76-.46.49-1.73,1.07-3.45,1.61-5.17.23-.71.48-1.41.68-2.13.1-.36.06-.64-.46-.76C44.19,48.6,43.31,48.26,42.28,47.93Zm7,10.58c-1.55-.13-1.77-.59-2,1.59a1.89,1.89,0,0,0,0,.47c.05.46.2.85.77.87a.78.78,0,0,0,.87-.76C49.06,60,49.2,59.23,49.33,58.51Z" transform="translate(-38.14 -41.91)"/><path d="M70.48,48.52c.34,3.77-3,6.49-6.42,6.55a6.76,6.76,0,0,1-6.52-6.38,6.63,6.63,0,0,1,6.55-6.64C67.56,42,70.88,45.08,70.48,48.52Zm-1.18.07a5.24,5.24,0,1,0-10.48,0,5.24,5.24,0,0,0,10.48,0Z" transform="translate(-38.14 -41.91)"/><circle class="cls-1" cx="25.9" cy="6.63" r="6.13"/><path class="cls-2" d="M66,51.37a3.33,3.33,0,0,1-1.64.4,3,3,0,0,1-2.15-.84,2.69,2.69,0,0,1-.73-1.43h-.76v-.59h.67c0-.13,0-.21,0-.28a3.31,3.31,0,0,1,0-.42h-.68v-.58h.77a2.93,2.93,0,0,1,.75-1.4,3.2,3.2,0,0,1,2.27-.9,3.26,3.26,0,0,1,1.48.33l-.24.75a2.58,2.58,0,0,0-1.25-.29A2.07,2.07,0,0,0,63,46.7a1.72,1.72,0,0,0-.49.93h3v.58H62.43c0,.13,0,.26,0,.34s0,.22,0,.36h3.12v.59h-3a1.79,1.79,0,0,0,.47.87,2,2,0,0,0,1.51.58,2.91,2.91,0,0,0,1.35-.31Z" transform="translate(-38.14 -41.91)"/></svg>