<svg id="Ebene_1" data-name="Ebene 1" xmlns="http://www.w3.org/2000/svg" viewBox="0 0 87.91 87.95"><title>Familienunternehmen_mit_Ethik-Code</title><path d="M57.18,34.87c.73,0,1.45,0,2.18,0,.93,0,1.87.11,2.81.18.25,0,.49.12.74.15.72.1,1.45.12,2.15.29s1.42.22,2.1.43,1.13.23,1.67.42c.83.28,1.68.53,2.53.79a16,16,0,0,1,2,.77c.36.17.73.26,1.08.43.65.31,1.3.64,1.94,1l.08,0c.46.21.93.39,1.37.62s1,.63,1.52.93.83.46,1.23.72,1,.65,1.44,1l.67.44a6.81,6.81,0,0,1,1.09.83c.16.16.37.26.54.41.48.39.94.82,1.44,1.2a10.89,10.89,0,0,1,1,.84c.49.48,1,.93,1.49,1.41s.7.71,1,1.08.71.81,1.07,1.21.64.69,1,1.05.37.5.56.75l.66.81.06.06,1.09,1.67c.33.49.67,1,1,1.48.19.29.35.58.52.87s.48.81.7,1.22.4.82.6,1.23l.58,1.14c.07.14.12.29.18.44.24.56.5,1.11.74,1.68.16.39.3.79.44,1.19.2.59.41,1.17.6,1.77.13.41.23.83.35,1.24.18.63.4,1.25.57,1.88.11.42.16.85.24,1.28s.17.69.22,1c.1.63.15,1.26.26,1.89a8,8,0,0,1,.18,1.09c0,.69.11,1.38.16,2.08a2.17,2.17,0,0,0,.13,1,.8.8,0,0,1,0,.35c0,1,0,2,0,3.08,0,.34-.1.69-.13,1s0,.7-.05,1-.07.87-.12,1.29-.14,1-.21,1.53-.13.94-.21,1.41-.2,1-.32,1.56c-.16.73-.29,1.46-.52,2.17a12.5,12.5,0,0,1-.4,1.36c-.2.46-.28,1-.45,1.43-.25.71-.52,1.42-.8,2.12s-.54,1.29-.83,1.93c-.19.4-.41.78-.62,1.17l-.76,1.43c-.15.29-.3.58-.46.87-.33.57-.65,1.15-1,1.7s-.66.93-1,1.39c-.21.29-.4.59-.6.89s-.24.3-.35.46c-.47.59-.92,1.19-1.4,1.78-.35.44-.72.87-1.1,1.29s-.65.67-1,1-.5.53-.76.8-.49.47-.74.7l-1,1c-.38.34-.77.67-1.16,1s-.52.48-.8.7-.56.4-.83.6c-.51.37-1,.75-1.51,1.11-.28.2-.58.37-.87.55-.76.48-1.53,1-2.3,1.44-.34.21-.71.37-1.07.56l-1.43.74c-.33.17-.67.32-1,.47l-1.63.72c-.51.23-1.07.35-1.57.59s-1.3.32-1.89.66a.84.84,0,0,1-.17,0c-.68.18-1.37.32-2,.55s-1.47.27-2.19.48c-.88.25-1.79.24-2.67.43-1.25.27-2.53.2-3.78.37a31.27,31.27,0,0,1-3.62.11,2.92,2.92,0,0,1-.5-.09,3,3,0,0,0-.43,0,27.47,27.47,0,0,1-3.15-.22c-.89-.15-1.81-.18-2.68-.41-.66-.19-1.35-.25-2-.42a11.24,11.24,0,0,1-1.41-.37c-.45-.19-.95-.23-1.4-.42s-.91-.25-1.35-.42-1-.39-1.45-.58-1-.39-1.55-.61-.85-.4-1.27-.61l-.85-.4c-.43-.21-.88-.4-1.3-.62s-.94-.54-1.4-.81-.86-.51-1.28-.78-1.06-.72-1.58-1.08c-.31-.2-.62-.41-.91-.63s-.49-.37-.73-.56-.44-.31-.65-.48c-.46-.4-.92-.8-1.39-1.19s-.72-.59-1.07-.9-.69-.64-1-1-.66-.66-1-1-.7-.75-1-1.14-.65-.71-.95-1.08-.72-.92-1.08-1.38c-.11-.14-.23-.28-.34-.43-.25-.31-.5-.62-.72-1-.34-.49-.66-1-1-1.5-.22-.34-.46-.67-.68-1a10.54,10.54,0,0,0-.54-.92c-.28-.37-.38-.82-.67-1.18a3.18,3.18,0,0,1-.48-.91c-.25-.75-.71-1.39-1-2.14-.14-.38-.29-.77-.47-1.15a14.73,14.73,0,0,1-.79-2.07A7,7,0,0,0,15.26,92c-.24-.48-.26-1-.49-1.49a9.6,9.6,0,0,1-.25-1.09c-.25-.77-.3-1.59-.51-2.36-.25-.92-.23-1.88-.43-2.8a20.51,20.51,0,0,1-.31-3.82c0-1.28,0-2.55,0-3.82a23.28,23.28,0,0,1,.2-2.9c.08-.58.17-1.16.26-1.74,0-.23,0-.46.09-.68.15-.84.27-1.68.49-2.49.17-.6.25-1.21.44-1.79.25-.82.52-1.63.77-2.45s.51-1.43.79-2.13.55-1.31.85-2c.15-.33.35-.65.52-1a.67.67,0,0,0,.06-.12,7.9,7.9,0,0,1,.83-1.64c.17-.28.3-.58.48-.85a11.29,11.29,0,0,1,.73-1.2,9.23,9.23,0,0,0,.56-.91c.22-.34.46-.68.68-1s.36-.55.56-.81c.32-.44.66-.85,1-1.28s.71-.93,1.07-1.38c.15-.19.31-.37.47-.55l1.4-1.42c.46-.48.91-1,1.38-1.44s.71-.65,1.08-1l1.71-1.48a6.26,6.26,0,0,1,.57-.45c.49-.37,1-.74,1.47-1.1.34-.24.7-.45,1-.68s.57-.42.87-.61c.65-.41,1.31-.8,2-1.2.27-.16.55-.3.83-.44.46-.23.93-.44,1.39-.66s.83-.44,1.26-.63,1-.39,1.51-.62a13.08,13.08,0,0,1,2.08-.79c.32-.09.62-.22.93-.32.6-.21,1.21-.42,1.82-.61.19-.06.4-.07.59-.12.92-.23,1.86-.41,2.78-.62s1.84-.26,2.76-.42A7.41,7.41,0,0,1,52.59,35l4.59-.23ZM37.42,42.61c-.35-.06-.42-.14-.35-.44s.1-.36.17-.6c-.57.13-.72.78-1.27.84l.11-.4L36,42l-2.09,1.27a1.42,1.42,0,0,0,.15.35.59.59,0,0,0,.33.24,1.86,1.86,0,0,0,.85,0,7.06,7.06,0,0,1,1.09-.23.55.55,0,0,0,.27-.11c.18-.21.5-.3.54-.64,0-.07.17-.12.26-.18s.12,0,.13.09c.08.27.15.54.21.82s0,.28,0,.43a.69.69,0,0,1,.53.62.72.72,0,0,0,.15.27.34.34,0,0,0,.32-.38,6,6,0,0,0-.07-.73.57.57,0,0,1,.14-.51,7.32,7.32,0,0,0,.58-.67s0-.1,0-.21c-.28,0-.55-.07-.81-.08s-.31-.06-.31-.28a1.56,1.56,0,0,1-.72.46C37.52,42.46,37.42,42.48,37.42,42.61Zm31.14,7.72c-.3.26-.57.48-.83.72a4.42,4.42,0,0,1-1,.75,1.2,1.2,0,0,0-.68.89,6.45,6.45,0,0,1-.23,1.21,11.16,11.16,0,0,1-.37,1.25c-.19.39-.27.81-.48,1.2a2.47,2.47,0,0,1-.74.8,4.44,4.44,0,0,1-1,.47,3.08,3.08,0,0,0-.08,1.78,2.52,2.52,0,0,0,.34.79c.31.49.52.49.91.05,0,0,0-.08.07-.11.22-.17.42-.39.77-.32,0,.09.07.18.12.27a5.76,5.76,0,0,0,.48,1,.53.53,0,0,1,0,.63.93.93,0,0,0-.08.22,1.45,1.45,0,0,0,.78-.12.53.53,0,0,0,.27-.26c.14-.35.26-.72.37-1.09a.77.77,0,0,1,.33-.48.6.6,0,0,0,.21-.83c-.08-.15-.2-.27-.29-.42a1.76,1.76,0,0,1-.22-.46,2.69,2.69,0,0,1,.19-1.4c.24-.55.48-1.1.74-1.64a2.62,2.62,0,0,1,.39-.55.42.42,0,0,1,.32,0,.73.73,0,0,1,.36.7,5,5,0,0,1-.45,1.11,1.54,1.54,0,0,0-.22,1,.88.88,0,0,0,.75.86,9.16,9.16,0,0,1,1.65.27c.23.08.52,0,.7.28l-.31.49a2,2,0,0,1-1.09.07.56.56,0,0,0-.61.16c.07.2.13.43.23.65s.16.34-.12.58c-.25,0-.52-.09-.78.17,0,.21,0,.45,0,.7a1,1,0,0,1-.94,1l-1,.14a2.36,2.36,0,0,0-.66.16,1.07,1.07,0,0,1-1.53-.84c0-.18,0-.37,0-.56v-.45a.4.4,0,0,0-.31.44c0,.32,0,.64,0,1a.88.88,0,0,1-.23.67c-.26.22-.49.47-.74.7a5.48,5.48,0,0,1-.56.52c-.22.17-.47.31-.7.46.09.38.08.59,0,.71s-.46.52-.86.48a.34.34,0,0,0-.24.07,1.93,1.93,0,0,1-1.44.32c.26.32.5.6.74.88a2,2,0,0,0,.21.2.88.88,0,0,1,.39.89,5.59,5.59,0,0,1-.26.82.58.58,0,0,1-.49.37c-.42,0-.84.07-1.25.06a1,1,0,0,0-1.1.88c-.08.3-.12.6-.19.89a.67.67,0,0,1-.07.24A1,1,0,0,0,58.12,73a4.15,4.15,0,0,1,.57.35A.79.79,0,0,1,59,74.47a2.26,2.26,0,0,1-.49.85,8.74,8.74,0,0,0-.73.88,1.55,1.55,0,0,0-.33,1,2.28,2.28,0,0,1,0,.31c-.45.35-.88.63-1.25,1a2.88,2.88,0,0,0-.61.81c-.24.43-.42.9-.63,1.36a.24.24,0,0,1-.06.11c-.38.37-.2.79,0,1.15a1.61,1.61,0,0,1,.16.73c0,.18,0,.35-.05.52a4.7,4.7,0,0,1-.16,1.49c-.06.15,0,.36.06.55a1.54,1.54,0,0,1,.08.19c0,.6.44.89.86,1.19.19.14.44.32.49.52a2.42,2.42,0,0,0,.49.89,6.29,6.29,0,0,0,.43.47,1.45,1.45,0,0,1,.6.18,1.38,1.38,0,0,1,.45.45.56.56,0,0,0,.68.23,1.41,1.41,0,0,0,.72-.24A.51.51,0,0,1,60,89a8.11,8.11,0,0,1,.86,0,1.79,1.79,0,0,0,1.42-.19c.3-.25.66-.34,1-.56a6.74,6.74,0,0,0,.62.47c.23.13.51.19.74.33a.74.74,0,0,0,.9,0,1.15,1.15,0,0,1,.37,1.66.61.61,0,0,0,0,.12,2,2,0,0,0,.12,1.5,11.62,11.62,0,0,0,.71,1.11,6.44,6.44,0,0,0,.82,1,.68.68,0,0,1,.12.72,2.5,2.5,0,0,1-.09.25.73.73,0,0,0,.07.8,1.53,1.53,0,0,1,.14.62c0,.16-.1.26-.21.36a1.19,1.19,0,0,0-.18.29,2.52,2.52,0,0,0-.44,1.28,2.12,2.12,0,0,0,.19,1.09,6.13,6.13,0,0,1,.57,1.47c.21.73.34,1.48.52,2.22a1.68,1.68,0,0,0,.17.49,4.22,4.22,0,0,1,.72,2.17.52.52,0,0,0,0,.21.59.59,0,0,0,.5.53,2.47,2.47,0,0,0,.81,0,9.35,9.35,0,0,0,1.74-.58,2,2,0,0,0,1-.84,3,3,0,0,1,.47-.66,5.65,5.65,0,0,0,.73-1s0-.13.08-.15c.21-.12.2-.33.22-.53a.89.89,0,0,1,.39-.77,5.66,5.66,0,0,0,.67-.54.56.56,0,0,0,.14-.2.92.92,0,0,0-.08-1A.8.8,0,0,1,76,99.67c.18-.14.33-.31.49-.46A8.79,8.79,0,0,0,77.77,98a3,3,0,0,0,.53-1.28,4.34,4.34,0,0,0-.24-1.51,9.22,9.22,0,0,1-.1-2,.85.85,0,0,1,.25-.62c.36-.34.67-.73,1-1.1s.75-.78,1.1-1.19a5.52,5.52,0,0,0,1-1.2,3.63,3.63,0,0,1,.56-.86,2.7,2.7,0,0,0,.7-1,.42.42,0,0,1,.11-.18l.48-.6a.27.27,0,0,0,0-.16c0-.29,0-.57,0-.87l-.3-.09a2,2,0,0,0-.15.18.73.73,0,0,1-.78.27,2.65,2.65,0,0,0-1.14.18,1.27,1.27,0,0,1-.67.1l-.29-.48c-.24-.39-.16-.59.27-.67a4.84,4.84,0,0,0,1.76-.6c.51-.31,1-.56,1.57-.88s.85-.51,1.25-.81a5,5,0,0,0,1.21-1.13c.15-.21.26-.44.41-.64a1.49,1.49,0,0,0,.23-1.1,1.41,1.41,0,0,1-1.25-1.18,1.41,1.41,0,0,0-1.1.13,1.63,1.63,0,0,1-.69.17c-.38,0-.42,0-.51-.42,0-.11-.08-.28-.17-.31a2.47,2.47,0,0,1-1-.82,1.45,1.45,0,0,1-.3-.86c.4-.18.38-.17.63.15a2.06,2.06,0,0,0,.53.49,3.17,3.17,0,0,0,1.62.52c.21,0,.43,0,.65,0s.6.05.69.42c.22,0,.42,0,.62,0,.58,0,1.16-.07,1.73,0a2.38,2.38,0,0,1,.92.21,7.54,7.54,0,0,1,1.06.71,1.68,1.68,0,0,1,.76,1l.12.5.23,0a.9.9,0,0,1,.77.23,1.92,1.92,0,0,1,.49.74c.12.38.26.75.35,1.14,0,.22.19.42.26.63.12.41.4.78.28,1.24a.39.39,0,0,0,0,.26,2.42,2.42,0,0,1,.31,1.41.93.93,0,0,0,.59.93,2.34,2.34,0,0,0,.43-.59,8.14,8.14,0,0,0,.47-1.5c.1-.6.3-1.17.43-1.76a.71.71,0,0,1,.6-.65c.23,0,.28-.21.37-.38a3.41,3.41,0,0,1,.37-.71c.51-.6,1-1.16,1.56-1.75a.68.68,0,0,1,.53-.24l.67,0c0-.18,0-.32,0-.46,0-1-.05-2-.08-3a2.21,2.21,0,0,0,0-.25,4.42,4.42,0,0,1-.1-.5c-.11-1.16-.19-2.31-.41-3.46s-.41-2.06-.63-3.09a2.42,2.42,0,0,0-.14-.67A3.37,3.37,0,0,1,98,67l-.07-.25c-.2-.58-.41-1.15-.6-1.73-.14-.39-.24-.79-.42-1.17-.31-.66-.54-1.35-.82-2s-.45-1-.67-1.58l-.08-.14c-.16-.27-.32-.54-.46-.82s-.42-.84-.64-1.26-.29-.52-.45-.77-.46-.69-.67-1-.41-.71-.64-1c-.34-.49-.7-1-1-1.45-.15-.2-.28-.4-.42-.59l-1.25-1.58c-.15-.18-.31-.37-.47-.54s-.41-.39-.6-.6c-.35-.38-.67-.77-1-1.13s-.93-.89-1.39-1.33-.67-.69-1-1-.94-.8-1.42-1.19c-.24-.2-.49-.38-.73-.57l-.69.44a1.42,1.42,0,0,0,.17.42c.15.18.35.33.52.5a3.84,3.84,0,0,1,.31.36l-.21.27c-.43-.28-.43-.28-.67-.29,0,.29,0,.59-.38.64l-.54-.28a2.62,2.62,0,0,0,.53,1.22c.09.15.21.27.31.41s.1.18.16.27a7.09,7.09,0,0,1-.88-.85,4.07,4.07,0,0,1-.43-.4c-.18-.26-.32-.56-.48-.85a.5.5,0,0,0-.15-.14l-.72-.36a2,2,0,0,0,0,.32c0,.36.08.72.07,1.08a1.65,1.65,0,0,0,.57,1.37c.3.27.24.55.17.87h-.18a16.4,16.4,0,0,1-1.72-.36,3.16,3.16,0,0,1-1.27-.48,2.55,2.55,0,0,1-.74-.76,2,2,0,0,1-.34-1.26c0-.21,0-.43,0-.65a1.63,1.63,0,0,1,.1-.71c.15-.27.18-.62.49-.79a.17.17,0,0,0,.06-.11,1,1,0,0,1,.47-.93.28.28,0,0,0,.09-.1.68.68,0,0,0,0-.7.39.39,0,0,0-.49-.22l-.29.76-.74.23c-.07.26-.12.48-.18.71a1,1,0,0,1-.25.53.68.68,0,0,0-.17.6c0,.36.11.72.13,1.08a4.1,4.1,0,0,1,0,1A1.13,1.13,0,0,0,76,49.19a1.06,1.06,0,0,1,.92.22,1.41,1.41,0,0,0,1.07.38,1.45,1.45,0,0,1,.8.37.36.36,0,0,1,.13.21,1.22,1.22,0,0,1-.08.79l-1.33.38-.34-.3c-.26.27-.48.53-.73.76s-.5.61-1,.54c-.05-.12-.12-.26-.17-.4s-.09-.3-.13-.43c-.49-.08-.54,0-.53.37a1.94,1.94,0,0,0,.12.53c.09.26.21.52.32.79-.3.09-.57.18-.77-.06a5.27,5.27,0,0,1-.4-.64,1.6,1.6,0,0,0-1.19-1,10.84,10.84,0,0,1-1.61-.28,1,1,0,0,1-.74-.69c0-.08,0-.16-.06-.23a2.54,2.54,0,0,0-1.31,0C68.8,50.56,68.64,50.56,68.56,50.33Zm-21.4,52c0-.12,0-.16,0-.2.18-1.56.06-3.14.36-4.69A3.39,3.39,0,0,1,48,96a1,1,0,0,0,0-1.22,2.91,2.91,0,0,0-1.24-.94c-.09,0-.21,0-.27-.12a1.2,1.2,0,0,0-1-.31c-.29,0-.58,0-.87,0a.79.79,0,0,1-.61-.25,1.53,1.53,0,0,0-.55-.39c-.48-.21-1-.39-1.48-.58l-.38-.12a2.24,2.24,0,0,1-.11-.55,1.37,1.37,0,0,0-.48-.93l-.26-.28a2.23,2.23,0,0,0-1.48-.82A1.77,1.77,0,0,1,38,89c-.32-.31-.63-.63-1-.91a1,1,0,0,1-.36-.75c0-.14,0-.28-.06-.42s-.09,0-.14-.08l-.11.38a12.88,12.88,0,0,1-2.54.11c-.24-.4-.27-.42-.69-.48l-.39-.06-.93-.32-.27.37a5.52,5.52,0,0,1-.43.53,5.64,5.64,0,0,0-.56.52.56.56,0,0,1-.64.23,1.64,1.64,0,0,1-.53-.17.84.84,0,0,0-.66,0c-.21,0-.4.16-.61.2a.58.58,0,0,1-.41-.07,1.44,1.44,0,0,1-.7-1.32c0-.35,0-.7,0-1s-.07-.48-.47-.49H25.46a.84.84,0,0,1-.72-.51.87.87,0,0,1,.26-.91.7.7,0,0,0,.25-.52c0-.22.05-.43.06-.65s0-.34,0-.52a3.59,3.59,0,0,0-1.11.33c-.06,0-.12.12-.15.19a2.64,2.64,0,0,0-.15.45.76.76,0,0,1-.72.67A2.53,2.53,0,0,1,22,83.62a1.14,1.14,0,0,1-1-.92,1.34,1.34,0,0,0-.13-.27,1.54,1.54,0,0,1-.18-.52,11.19,11.19,0,0,1,.07-1.64,10.69,10.69,0,0,1,.42-1.57,1.34,1.34,0,0,1,.59-.69,1.6,1.6,0,0,1,.82-.24c.61,0,1.23.06,1.85.09.08-.13.17-.27.27-.41a1.23,1.23,0,0,1,1.26-.4c.34.19.63.46,1,.67s.3.55.36.85A3.59,3.59,0,0,0,28.18,80c.05.06.2.06.35.1a3.19,3.19,0,0,0-.3-1.77,1.64,1.64,0,0,1-.3-1.11,2.16,2.16,0,0,1,.77-1.25,8.34,8.34,0,0,1,1.45-1,1,1,0,0,0,.48-.68,10.7,10.7,0,0,1,.3-1.11c.12-.32.32-.6.47-.91a4.48,4.48,0,0,1,.88-1.19,1.2,1.2,0,0,1,.58-.23,1.9,1.9,0,0,1,.41,0c.14-.32.29-.59.39-.88a1.56,1.56,0,0,1,.66-.81c.14-.09.25-.15.39,0a.37.37,0,0,0,.2.07,1.43,1.43,0,0,1,.93.4l.69-.46a2.11,2.11,0,0,1,.34-.16c.29-.11.59-.2.89-.3a.34.34,0,0,0,.25-.36c0-.19,0-.41-.2-.48a4.23,4.23,0,0,1-.86-.48.6.6,0,0,1-.33-.42l.31-.4-.61-.38c-.11-.07-.26-.14-.2-.29a.53.53,0,0,1,.26-.27.7.7,0,0,1,.38,0,8.52,8.52,0,0,1,.84.2.93.93,0,0,0,.75-.06l.87-.46c.13-.08.26-.17.4-.24a1,1,0,0,1,.62-.17c.07.33.07.33-.1.55s-.41.61-.65.9-.43.47-.64.71a2.13,2.13,0,0,0-.13.21c.29,0,.54.07.78.08s.46.09.52.37c0,0,0,.1,0,.14l.72,0,.39-.22V66.41l-.81-.35c0-.18,0-.36,0-.53,0-.33,0-.66.08-1s.09-.35.12-.53,0-.3,0-.36a.62.62,0,0,1-.17-.51c0-.24,0-.49,0-.71a2.84,2.84,0,0,1-.4-.23,1.47,1.47,0,0,1-.47-1.11c0-.61,0-1.22,0-1.83v-.94a1.85,1.85,0,0,0-.3.47c-.08.52-.51.74-.85,1a.85.85,0,0,1-.79,0,.61.61,0,0,1-.1-.65A4.2,4.2,0,0,1,38.16,58a.63.63,0,0,0-.66-.29c-.34-.24-.29-.64-.43-.93-.33-.07-.64-.16-1-.2s-.51,0-.61.43-.26,1-.41,1.44a.75.75,0,0,1-.16.29c-.15.13-.31.24-.47.36a.52.52,0,0,0-.06.84.61.61,0,0,1,.08.88,2.09,2.09,0,0,1-.36.37c-.35.29-.72.55-1.06.85a1.15,1.15,0,0,0-.5.89.86.86,0,0,1,0,.17A3.36,3.36,0,0,1,32,64.34l-.41,0c-.19-.33-.2-.33-.18-.64s.06-.86.1-1.29a1,1,0,0,0-.33-.81,5.12,5.12,0,0,1-.56-.58,3,3,0,0,0-1.32-1.17c0-.43,0-.84.05-1.24a.94.94,0,0,1,.11-.32c.06-.12.15-.24.22-.36a5.56,5.56,0,0,1,.54-.92,4.49,4.49,0,0,1,1.53-1.2.81.81,0,0,0,.43-.4,1.11,1.11,0,0,1,.48-.5c.07,0,.16-.09.22-.14a5.88,5.88,0,0,1,1.66-1.19s0-.05.06-.06l.35-.06a1.26,1.26,0,0,1-.09.44,3.88,3.88,0,0,1-.34.38,4.63,4.63,0,0,0-.69,1.16c.32,0,.32,0,.52-.18a.43.43,0,0,1,.64,0,.79.79,0,0,0,.51.2l.32-.47a4,4,0,0,1-.8-1.35.45.45,0,0,1,.46-.61h.78a.39.39,0,0,0,.45-.3c.15-.43.33-.85.49-1.25a2.53,2.53,0,0,0,.47-.45,1.67,1.67,0,0,0,.17-.52.48.48,0,0,1,.87-.24c.17.18.31.2.48.09a1.67,1.67,0,0,0,.11.62,3,3,0,0,1,.41,1,1.17,1.17,0,0,1-.31,1c-.17.2-.39.37-.58.56a5.51,5.51,0,0,0-.41.43c-.17.22-.33.45-.5.69-.32-.42-.62-.5-.87-.27s-.28.59.13,1l.66-.42a1.43,1.43,0,0,1,0,.21.75.75,0,0,0,.4.7,1.4,1.4,0,0,1,.5.57c.15.26.25.58.56.72l.78-.47a1,1,0,0,0,.5-1.33,1.11,1.11,0,0,0-.09-.19,2.06,2.06,0,0,1-.13-.84l.56,0c.28.23.13.62.49.72l1.09-1.42c-.42-.3-.42-.3-.45-1a4.28,4.28,0,0,1-.29-.38c-.18-.27-.16-.29.08-.53a1.25,1.25,0,0,0,.38-.55,8,8,0,0,0,0-1.2s0,0-.08-.07l-.26.14c-.09-.12-.24-.22-.25-.34a2.41,2.41,0,0,1,.11-.56l-.14,0c-.44-.12-.47-.19-.41-.64a10.36,10.36,0,0,0,.1-1.25.6.6,0,0,0-.53-.63,7.33,7.33,0,0,0-.81,0l-.12,0,0-.35a1.27,1.27,0,0,0-.47,0,3,3,0,0,0-.75.39c-.5.4-1,.82-1.49,1.24l-.13,1.08c-.21.09-.4.21-.36.43l.72.59-.32.36c-.29.35-.57.7-.87,1a1.82,1.82,0,0,1-.42.36.28.28,0,0,1-.41-.07l.37-.93-.46-.41c-.24-.21-.22-.32,0-.53a1.68,1.68,0,0,0,.46-.5,14,14,0,0,0,.48-1.33,1.75,1.75,0,0,1,1.45-1.38.9.9,0,0,0,.46-.22,4.62,4.62,0,0,0,.46-.5c-.6-.17-1.26-.18-1.65-.75a.81.81,0,0,0-.79.48s-.08.09-.12.13a2.18,2.18,0,0,0-.73,1.32.38.38,0,0,1-.1.26,1.65,1.65,0,0,0-.54,1,2.54,2.54,0,0,1-1.05,1.45,6.62,6.62,0,0,0-.88.78,2.69,2.69,0,0,1-.64.62,1.57,1.57,0,0,1-.3.12c-.26.07-.41-.16-.63-.22s-.45-.39-.62-.62a.42.42,0,0,1,.05-.45.63.63,0,0,1,.71-.28l.41.11c.3.07.32.06.5-.21l.08-.15.54-.15v-.78a1.06,1.06,0,0,1,.3-.77,1.4,1.4,0,0,0,.16-.26c.24-.34.47-.68.71-1s.56-.68.81-1a.38.38,0,0,0,0-.51.76.76,0,0,0-.3,0c-.45.3-.9.61-1.35.9a.93.93,0,0,1-.34.18.44.44,0,0,1-.58-.38l.33-.27-.18-.17c-.23-.17-.23-.19-.07-.44s.29-.48.44-.72a5,5,0,0,0-.73.47l-.87.68c-.18.14-.37.26-.53.41S30,46,30,46.41c0,0,0,.07-.07.1a.71.71,0,0,0-.18.56,3.73,3.73,0,0,1,0,.43L29,48a1.65,1.65,0,0,0,.17,1c-.33.36-.43.39-.82.11a9.47,9.47,0,0,1-.75-.71c-.81.68-1.45,1.55-2.26,2.32l.24.3a.29.29,0,0,1,.1.35.28.28,0,0,1-.31.17h-.74l-.71,1-.46.56c-.17.22-.36.43-.52.66-.31.42-.6.86-.9,1.29a7.11,7.11,0,0,1-.51.79c-.22.24-.29.58-.49.79a11.32,11.32,0,0,0-.64,1.05,7.56,7.56,0,0,0-.57,1c-.32.6-.67,1.18-1,1.8s-.6,1.33-.88,2-.52,1.23-.75,1.86-.39,1.2-.58,1.8a2.13,2.13,0,0,1-.13.59A7.13,7.13,0,0,0,16,68.25a18.17,18.17,0,0,0-.51,2.21c0,.17-.05.34-.08.52-.11.63-.23,1.26-.32,1.9S15,74,14.93,74.52c0,.16-.07.33-.1.49s-.05.23-.06.34c0,.5-.06,1-.08,1.51,0,.27-.07.56.25.73,0,0,0,.07.06.11a8.84,8.84,0,0,1,.57,1c.31.61.69,1.2,1,1.8a9.24,9.24,0,0,0,.65,1,2.2,2.2,0,0,1,.54,1.37,1,1,0,0,0,0,.3.58.58,0,0,0,.19.32c.35.23.72.44,1.09.64a7.42,7.42,0,0,0,2.3.81c.43.07.85.21,1.28.32a4,4,0,0,1,.49.17l1.54.63a1.26,1.26,0,0,1,.42.2,8.32,8.32,0,0,1,.59.74c.37.52.71,1.07,1.4,1.21a.44.44,0,0,1,.15.08l1.19.67a1.11,1.11,0,0,0,.29.08l.11-.6c.18.08.35.1.42.2s.42.41.58.67A1.94,1.94,0,0,1,30,91.24a11.18,11.18,0,0,1-.61,1,.88.88,0,0,0-.16.43,3.23,3.23,0,0,0,.24,1,1,1,0,0,1,0,1.13.59.59,0,0,0,0,.65A4.35,4.35,0,0,0,30,96a4.18,4.18,0,0,1,1.07,1.32,1.85,1.85,0,0,0,.45.66c.35.31.66.65,1,1s.71.46,1,.72.94.58,1.4.89a2.13,2.13,0,0,1,.45.45,7.56,7.56,0,0,1,1.12,2.45c.2.76.29,1.54.52,2.31.14.49.36,1,.53,1.45,0,0,0,.07.06.11a7,7,0,0,1,.45.74,2.24,2.24,0,0,1,.15,1.25,1.4,1.4,0,0,0,.29,1.09,3,3,0,0,1,.67,1.13,1,1,0,0,0,.12.27,1.59,1.59,0,0,0-.06.48,4.37,4.37,0,0,0,.28.71,1,1,0,0,0,.23.24c.28.24.74.27.77.78-.24.31-.2.53.11.83a1.76,1.76,0,0,1,.6.91.86.86,0,0,0,.52.64c.12.06.19.2.28.3a9.24,9.24,0,0,0,.72,1,7,7,0,0,0,.8.64,3.2,3.2,0,0,0,1.16.63,3.16,3.16,0,0,1,.37.12c.15.05.31.08.46.12l.18-.36a1.37,1.37,0,0,1-1-.6,11,11,0,0,0-.85-1.06,1,1,0,0,1-.23-.5,9,9,0,0,1-.1-1,.89.89,0,0,0-.49-.8,2.14,2.14,0,0,1-.48-.47.23.23,0,0,1,0-.24,1.29,1.29,0,0,0,.12-1.23l.28-.35c-.21-.34-.66-.32-.86-.64,0-.43.36-.4.65-.41a.94.94,0,0,0,0-.17c-.05-.2-.09-.41-.14-.64l.25,0a.78.78,0,0,0,.78-.75,1.53,1.53,0,0,0-.23-1,1.39,1.39,0,0,1-.11-.21c.28-.19.54-.36.8-.55s.34-.34.15-.72a2,2,0,0,1-.12-.38c.15-.16.3-.26.35-.39a9.08,9.08,0,0,0,.37-1.72.43.43,0,0,0-.12-.4,1.37,1.37,0,0,1-.17-.19c.05-.17.08-.31.11-.45s.1-.57.49-.62c.08,0,.15-.12.22-.19a1.73,1.73,0,0,1,1.39-.64A1,1,0,0,0,47.16,102.35ZM41.57,43.5a.86.86,0,0,0,.79.31,1,1,0,0,1,.47.17.32.32,0,0,0,.46,0c.09-.09.17-.19.25-.28a2.24,2.24,0,0,1,1.06-.91,1.39,1.39,0,0,0,1.06-1.06.42.42,0,0,1,.11-.18,3.61,3.61,0,0,1,1.43-.83,1.61,1.61,0,0,0,.43-.17l.74-.5a.44.44,0,0,1,.24-.09.24.24,0,0,1,.2.11s0,.18-.08.2a.37.37,0,0,0-.23.28c-.1.3-.19.6-.3.9a.42.42,0,0,1-.18.21c-.29.09-.58.15-.87.22s-.51.11-.76.18a.35.35,0,0,0-.23.16,1,1,0,0,0-.15.43,1.27,1.27,0,0,1-.61,1.24.33.33,0,0,0-.15.24c0,.35,0,.71,0,1.1l.4-.05a6,6,0,0,1,.73,0,.59.59,0,0,1,.6.41,2.85,2.85,0,0,1,.28,1.19,6.68,6.68,0,0,1-.16,1.4A9.28,9.28,0,0,1,46.33,50a2,2,0,0,0-.16.95,1.05,1.05,0,0,0,.18.37c.09.15.18.29.29.45-.08.13-.12.29-.23.37a1.51,1.51,0,0,0-.49.73l-.48.2a1.12,1.12,0,0,0,0,.13A2.08,2.08,0,0,1,45,54.28a.28.28,0,0,0,0,.24A7,7,0,0,1,45,56.16a1.75,1.75,0,0,0,0,.73c.18.38.16.79.31,1.16.23.56.53,1,1.23,1.11a1.78,1.78,0,0,0,.21-.27c.18-.39.37-.78.53-1.18A1.15,1.15,0,0,1,48,57a1.49,1.49,0,0,0,.09-.31A1.67,1.67,0,0,1,49,55.4c.5-.3,1-.54,1.52-.86a2.54,2.54,0,0,0,.92-.74.9.9,0,0,1,.8-.43,1.75,1.75,0,0,0,.54-.12c.16-.06.3-.15.46-.21a3.52,3.52,0,0,0,.52-.21,7.68,7.68,0,0,0,1.51-1.16,1,1,0,0,0,.29-.9,1.24,1.24,0,0,0-.33-.64.36.36,0,0,1-.07-.54c.06-.07,0-.21,0-.32a2.76,2.76,0,0,0-.09-.37,2.89,2.89,0,0,1,.6-.12.53.53,0,0,0,.44-.22,2.28,2.28,0,0,0,.4-.73,7.33,7.33,0,0,0,.13-1.62c0-.28,0-.48.26-.61a.37.37,0,0,0,.21-.39c0-.1,0-.2,0-.31a5.5,5.5,0,0,1,.53-2c.13-.36.46-.65.63-1a.71.71,0,0,1,.72-.5c.12-.37.55-.58.43-1a1,1,0,0,0-.88-.08c-.12,0-.24.09-.37.12a.49.49,0,0,1-.48-.23c-.11-.14,0-.27,0-.43s.35-.36.55-.5a.59.59,0,0,0-.2-.63,2.83,2.83,0,0,1-.53-.56,1.42,1.42,0,0,0-.67-.51,1.48,1.48,0,0,1-.51-.23.43.43,0,0,0-.63,0,1.37,1.37,0,0,0-.25.29c-.07.14-.15.24-.32.24a1.73,1.73,0,0,0-1.07.5,1.19,1.19,0,0,1-.79.27c-.11,0-.23-.09-.4-.15,0,.09-.13.23-.2.38s0,.17-.07.25-.08.23-.23.21-.17-.14-.18-.25a2.88,2.88,0,0,1,0-.41c-.44-.07-.84.17-1.28,0l.31-.58c0-.15-.1-.28-.13-.41a.88.88,0,0,0-1-.74l-.81.12a11.26,11.26,0,0,0-1.65.36c-.38.1-.78.11-1.15.24-.64.23-1.31.38-2,.59a1.57,1.57,0,0,0-.53.17,3.66,3.66,0,0,0-1.2,1.41,2.21,2.21,0,0,1-.16.35,9.22,9.22,0,0,0-.6,1.32s0,.1,0,.19l.81-.12a.6.6,0,0,1-.25.61,2.37,2.37,0,0,1-.72.51,1.12,1.12,0,0,0-.63.85s0,0,0,.08ZM82,96.42l-.09,0c-.31.49-.62,1-1,1.45-.18.24-.35.58-.68.6s-.5.25-.59.56c-.15.5-.32,1-.49,1.47a.56.56,0,0,1-.13.22,1,1,0,0,0-.15,1.15c.07.13.24.21.3.34a.42.42,0,0,0,.47.23.83.83,0,0,0,.72-.59c.24-.54.41-1.12.62-1.69a2.29,2.29,0,0,1,.1-.23,7.08,7.08,0,0,0,.62-1.72,1.59,1.59,0,0,1,.11-.59C82,97.21,81.91,96.81,82,96.42ZM60.72,61.18a1.31,1.31,0,0,1-.41-1.12h-.52a1.86,1.86,0,0,0-.48,1.59,2.06,2.06,0,0,0,1,1.28l0,.52a4.27,4.27,0,0,0-.38.22c-.08.06-.18.14-.19.22a7.15,7.15,0,0,0-.21,1.85c.2.06.35.06.47-.12a1.74,1.74,0,0,1,1.66-.8,1.15,1.15,0,0,0,.25,0c-.18-.15-.13-.24,0-.35a.22.22,0,0,0,0-.37,2.92,2.92,0,0,1-.66-1,.72.72,0,0,0-.09-.2c-.17-.21-.37-.39-.52-.61a2.06,2.06,0,0,1-.19-.56c0-.19.12-.23.22-.32S60.68,61.26,60.72,61.18Zm5-19.43c-.37.46-.37.45-1.08.51a1.53,1.53,0,0,0-.41.11c-.11.35.15.55.22.8s.16.52.24.77l.47.1c.2.36-.05.62-.11.93l.58.38.58-1.24.38.48a.37.37,0,0,0,.56,0,.23.23,0,0,0,0-.2,3.25,3.25,0,0,0-.36-.47,1.31,1.31,0,0,1-.32-1.06l1.07-.76c-.09-.2-.12-.48-.27-.56a1,1,0,0,0-1-.06A5.79,5.79,0,0,1,65.71,41.75ZM54.28,56.63a7.1,7.1,0,0,0,.93.34,1.35,1.35,0,0,0,1.42-.36,4,4,0,0,0,.49-1,.52.52,0,0,0-.58-.74c-.42,0-.84.05-1.25.11a.9.9,0,0,1-.73-.17c-.25-.17-.48-.09-.53.21a1.44,1.44,0,0,0,0,.5c0,.12.08.24.11.36S54.25,56.37,54.28,56.63ZM40.77,44.26c-.32-.34-.05-.67,0-1-.56-.11-.65-.07-.87.35a.59.59,0,0,1-.11.19,1.52,1.52,0,0,0-.35.81.59.59,0,0,0,.17.55,2.89,2.89,0,0,0,1.38.7.56.56,0,0,0,.33,0c.11,0,.2-.11.31-.15a.52.52,0,0,0,.35-.34c.08-.26.19-.5.29-.75a.7.7,0,0,0-.54-.24C41.39,44.34,41.07,44.29,40.77,44.26Zm16.95,20a.47.47,0,0,0,.22.54.5.5,0,0,0,.61,0,1.14,1.14,0,0,0,.52-.73c.06-.37.07-.75.1-1.12,0-.17-.1-.31-.25-.28a6.26,6.26,0,0,0-.91.34.28.28,0,0,0-.15.2C57.8,63.59,57.77,63.94,57.72,64.29ZM41.87,40.4l-.57-.09.1-.35a1.91,1.91,0,0,0,.06-.33.19.19,0,0,0-.23-.2,1.63,1.63,0,0,0-.81.37c-.16.12-.13.3-.15.47a1.36,1.36,0,0,1-.07.25c-.09.32-.17.64-.27,1a1,1,0,0,0,.84-.62c.16-.3.15-.31.52-.23.11.22,0,.34-.18.47l-.39.39a.75.75,0,0,0,.78-.17C41.71,41.09,42.08,40.87,41.87,40.4ZM30.73,82.81c.1-.2.07-.31-.1-.38L29.48,82a1.39,1.39,0,0,1-.28-.12l-1-.58a.53.53,0,0,0-.25-.08,1.9,1.9,0,0,0-1.47.46h.15l.12,0a2.37,2.37,0,0,1,1.72.38,8.93,8.93,0,0,1,.74.64.54.54,0,0,0,.28.16C29.89,82.82,30.32,82.81,30.73,82.81Zm2.57.86c-.1-.18-.12-.28-.18-.33a1.74,1.74,0,0,0-1-.43,2.15,2.15,0,0,0-1.07.23c-.19.09-.45.18-.37.51a6.13,6.13,0,0,0,.72.25.52.52,0,0,0,.41,0,1.2,1.2,0,0,1,.73-.19C32.76,83.66,33,83.67,33.3,83.67ZM72.39,39.14l0,.11c0,.6.47.94.79,1.36.1.13.33.06.45-.09a.94.94,0,0,0,.17-.87ZM14.68,78.43c0,.47,0,.89,0,1.31a.59.59,0,0,0,.09.32c.21.36.44.7.68,1a.28.28,0,0,0,.38.09c-.17-.46-.32-.92-.5-1.36S14.92,78.93,14.68,78.43ZM71.83,41.17l.53-.37H71.8v-.57c-.73-.07-.8-.06-1.1.12a3,3,0,0,0,.52.63A1.79,1.79,0,0,0,71.83,41.17Z" transform="translate(-13.24 -34.8)"/><path d="M69.59,76.25a1.91,1.91,0,0,1-.28,0,1.68,1.68,0,0,1-1.12-.63,2.91,2.91,0,0,0-.56-.5,1.33,1.33,0,0,0-.83-.22c-.48,0-.68-.21-.65-.69,0-.24,0-.49.08-.73a.76.76,0,0,0-.26-.73c-.19,0-.41-.08-.61.11s-.2,0-.3,0c-.52,0-1,0-1.56,0s-.83.07-1.25.11a.75.75,0,0,0-.29.09,4.77,4.77,0,0,1-2.06.9.71.71,0,0,0-.19.06c0-.13,0-.25.08-.29a5.67,5.67,0,0,1,.65-.33,1.72,1.72,0,0,0,1.16-1.26A4.06,4.06,0,0,1,62,71.13a2.05,2.05,0,0,1,.51-.55,1.12,1.12,0,0,0,.38-.66A.8.8,0,0,1,63,69.7a.67.67,0,0,1,.66-.3c.41,0,.83,0,1.25-.05.11,0,.26,0,.33.05.27.21.61.3.83.6a3.54,3.54,0,0,0,.53.49c.2.18.43.34.61.53a.77.77,0,0,1,.21.42,4.84,4.84,0,0,1,0,.77l-.8.14a.58.58,0,0,0,.08.7.68.68,0,0,0,.87.2,10.33,10.33,0,0,1,.67-1,.8.8,0,0,0,.2-.62,1,1,0,0,1,0-.25.66.66,0,0,1,.81.33l.5.79c.16.24.34.43.66.38h.3c.51,0,.68-.2.63-.78l-.65-.35a.65.65,0,0,1-.26-.55.34.34,0,0,1,.35-.32l.61-.09c0,.12,0,.2,0,.29a2.06,2.06,0,0,0,.81,1.54,3.51,3.51,0,0,1,.56.46.76.76,0,0,0,.62.23h.82a1.07,1.07,0,0,0,.59-.2,1.31,1.31,0,0,1,1-.23A3.2,3.2,0,0,1,76,74.19c0,.34-.31.52-.52.71a4.1,4.1,0,0,1-1,.56,3,3,0,0,1-1.79.11c-.56-.1-1.11-.3-1.66-.44a8.3,8.3,0,0,0-1-.19c-.46-.06-.64.08-.63.53A6.33,6.33,0,0,0,69.59,76.25Zm-4.85-5.17a3.19,3.19,0,0,0,.12.57.39.39,0,0,0,.24.19c.14,0,.24-.06.28-.22a1.69,1.69,0,0,0-.11-1,.21.21,0,0,0-.4,0A1.84,1.84,0,0,0,64.74,71.08Z" transform="translate(-13.24 -34.8)"/><path d="M73.9,67.65a.87.87,0,0,0,1.6.46,2.27,2.27,0,0,0-.22-.32c-.32-.35-.32-.35-.13-.85.25-.1.42.12.64.19,0,.13,0,.26,0,.39a1.27,1.27,0,0,0,.75,1c.26.14.54.25.82.37a.51.51,0,0,1,.27.5.75.75,0,0,1-.75.82,2.13,2.13,0,0,1-1.45-.31,5.33,5.33,0,0,0-1-.43,1.75,1.75,0,0,1-1.27.4c-.42,0-.55-.1-.61-.51A1.35,1.35,0,0,1,73,68.14c.08-.08.14-.18.22-.27C73.4,67.6,73.49,67.57,73.9,67.65Z" transform="translate(-13.24 -34.8)"/><path d="M79.53,84.21c-.35-.08-.59-.13-.76-.4a2.08,2.08,0,0,0-.41-.43,3.76,3.76,0,0,1-.83-1.61c-.16-.45-.3-.92-.48-1.37a3.36,3.36,0,0,0-.42-.64c-.18-.22-.38-.42-.56-.63,0,0,0,0,0,0a3.77,3.77,0,0,1-.43-1.43.62.62,0,0,1,.28-.56c.44,0,.62.3.8.62s.32.7.51,1a2.23,2.23,0,0,0,.66.86.46.46,0,0,1,.12.31,2.86,2.86,0,0,0,.63,1.38,5.33,5.33,0,0,1,.9,1.63A5.24,5.24,0,0,1,79.53,84.21Z" transform="translate(-13.24 -34.8)"/><path d="M73.42,56a1.27,1.27,0,0,1-1-1.17v-.3a.73.73,0,0,1,.45-.66A8.86,8.86,0,0,1,74,53.71c.3,0,.42.18.27.46s-.32.56-.48.84a.61.61,0,0,1-.37-.26L73.1,55c0,.24.15.33.24.49A.56.56,0,0,1,73.42,56Z" transform="translate(-13.24 -34.8)"/><path d="M66.59,68.63c.09,0,.17,0,.22,0a6.75,6.75,0,0,0,1.26.7,1.57,1.57,0,0,1,.46.43,7.12,7.12,0,0,1,.35.64c-.17,0-.32,0-.41-.05a7.83,7.83,0,0,1-1.68-1.07A.8.8,0,0,1,66.59,68.63Z" transform="translate(-13.24 -34.8)"/><path d="M83.35,52.16c0-.06-.13-.11-.15-.18-.13-.45-.26-.91-.37-1.36a3,3,0,0,0-.55-1,3,3,0,0,1-.42-.77c.06,0,.14,0,.17.07a11,11,0,0,1,1.1,1.7,1.86,1.86,0,0,1,.07.34l.21,1.21Z" transform="translate(-13.24 -34.8)"/><path d="M83.59,50.33a1.46,1.46,0,0,1,.16,1.1A.89.89,0,0,1,83.59,50.33Z" transform="translate(-13.24 -34.8)"/><path d="M26.82,67.38l-.12-.47.39-.12a2.57,2.57,0,0,1,.48-.67c.28-.2.61,0,.93,0,.05.16.1.31.14.46a.65.65,0,0,1-.25.69.56.56,0,0,1-.67-.13c-.18-.21-.27-.18-.43,0A1.61,1.61,0,0,1,26.82,67.38Z" transform="translate(-13.24 -34.8)"/><path d="M28.51,68.18a.57.57,0,0,1-.08.23,8.37,8.37,0,0,0-.57.62.88.88,0,0,0-.14.43c0,.2,0,.4,0,.58l-.6.42A.38.38,0,0,1,27,70a8.87,8.87,0,0,0,.28-1.1C27.5,68.32,27.85,68,28.51,68.18Z" transform="translate(-13.24 -34.8)"/><path d="M29.23,69.42a3,3,0,0,1-.29-1.22c0-.34.19-.52.51-.39.09,0,.16.13.28.16a3.8,3.8,0,0,1,.38.17c-.06.09-.08.18-.14.22a.42.42,0,0,0-.2.36A.67.67,0,0,1,29.23,69.42Z" transform="translate(-13.24 -34.8)"/><path d="M44.32,41.69c-.22-.1-.39-.16-.55-.25s-.11-.51.11-.66.17-.1.51-.05a2.11,2.11,0,0,0-.18.45A2,2,0,0,0,44.32,41.69Z" transform="translate(-13.24 -34.8)"/></svg>