<svg id="Ebene_1" data-name="Ebene 1" xmlns="http://www.w3.org/2000/svg" viewBox="0 0 36.22 32.77"><title>individuelle Weiterentwicklung</title><path d="M56.78,102.3H41.51c-2,0-2.76-.67-2.76-2.69q0-13.71,0-27.42a4.59,4.59,0,0,1,.1-1A2,2,0,0,1,41,69.53a2.07,2.07,0,0,1,2,1.88,10.77,10.77,0,0,1,0,1.27V96.43c0,1.61,0,1.62,1.63,1.62l27,0a7.86,7.86,0,0,1,1.82.15A2,2,0,0,1,75,100.34a2.1,2.1,0,0,1-1.77,1.92,9,9,0,0,1-1.27,0Z" transform="translate(-38.74 -69.53)"/><path d="M55.65,87l-5.18,5.32a11.28,11.28,0,0,1-1.34,1.25,2.68,2.68,0,0,1-3.72-3.8,15.37,15.37,0,0,1,1.37-1.43C48.91,86.18,51,84,53.17,81.92c1.78-1.77,3.1-1.75,4.85,0,.79.78,1.66,1.48,2.5,2.22.78-.74,1.58-1.46,2.34-2.22,1.8-1.81,3.55-3.65,5.36-5.44a2.72,2.72,0,0,1,4.36.32A2.58,2.58,0,0,1,72.21,80q-4.9,5.09-9.9,10.09A2.5,2.5,0,0,1,58.53,90C57.58,89.13,56.73,88.13,55.65,87Z" transform="translate(-38.74 -69.53)"/></svg>