<svg id="Ebene_1" data-name="Ebene 1" xmlns="http://www.w3.org/2000/svg" viewBox="0 0 66.62 66.66"><title>krisensicherer Arbeitsplatz</title><path d="M57.84,117.73C41.15,117.58,25,105.12,24.37,85.44A33.31,33.31,0,1,1,91,84.33C90.85,105.37,73.1,117.74,57.84,117.73Zm-.62-7.91A25.43,25.43,0,1,0,32.16,84.16C31.93,98,43.7,109.83,57.22,109.82Z" transform="translate(-24.35 -51.07)"/><path d="M69.34,80.7h3V99H43V80.77h2.78a58.79,58.79,0,0,1,.76-6.12c1-4.16,3.27-7.31,7.65-8.33,4.67-1.08,9-.5,12.34,3.38,2.14,2.51,2.73,5.61,2.85,8.81C69.36,79.17,69.34,79.82,69.34,80.7Zm-7.49-.06c-.08-2.58.48-5.17-1.92-6.86A4.83,4.83,0,0,0,55,74c-1.93,1.85-1.51,4.25-1.49,6.6Z" transform="translate(-24.35 -51.07)"/></svg>