<svg id="Ebene_1" data-name="Ebene 1" xmlns="http://www.w3.org/2000/svg" viewBox="0 0 28.51 30.94"><defs><style>.cls-1{fill:#fff;}</style></defs><title>Mitarbeiterevents</title><path d="M66.92,91.34l1.8,6.71,2.4,1.21-.07.46c-1.67.93-3.56,1.13-5.36,1.65-.33-1.17-.33-1.17,1-2.66-.57-2.15-1.16-4.4-1.77-6.69-.62-.2-1.19-.35-1.74-.57a3.94,3.94,0,0,1-2.59-2.89c-.87-4-1.65-8-2.46-12a3.78,3.78,0,0,1,.1-.71l6.47-1.77c.28.61.55,1.12.74,1.66,1,2.88,1.86,5.81,2.94,8.65C69.41,87,69.57,89.44,66.92,91.34Zm.23-8.43c-1-2.81-1.82-5.42-2.72-8.09l-5.64,1.55,1.35,6.54Z" transform="translate(-42.62 -70.43)"/><path d="M55.71,74.36c-.2,1.12-.34,2-.52,3-.56,2.79-1.22,5.56-1.67,8.37-.43,2.63-1.69,4.33-4.64,4.71L47.11,97l1.39,2.47-.39.44-5.33-1.43-.16-.54,2.47-1.55,1.76-6.54C44.32,88,44.3,85.72,45.3,83.11c1.13-3,2.06-6,3.08-9.06.14-.42.32-.83.58-1.48Zm-.75.5-5.63-1.51-3.2,9.53h7.22C53.89,80.23,54.41,77.61,55,74.86Z" transform="translate(-42.62 -70.43)"/><path d="M57.36,73.45c-.21-1-.67-2.13,0-3l.57.1Z" transform="translate(-42.62 -70.43)"/><path d="M58.2,73.65l1-2.08.58.43-1.62,1.66Z" transform="translate(-42.62 -70.43)"/><path d="M56,73.41l-1-1.56.54-.25.57,1.68Z" transform="translate(-42.62 -70.43)"/><path d="M59,74.23l1.52-.74.18.42-1.56.63Z" transform="translate(-42.62 -70.43)"/><path class="cls-1" d="M55,74.86c-.55,2.75-1.07,5.37-1.61,8H46.13l3.2-9.53Z" transform="translate(-42.62 -70.43)"/></svg>