<svg id="Ebene_1" data-name="Ebene 1" xmlns="http://www.w3.org/2000/svg" viewBox="0 0 81.79 77.05"><title>Talentierte_Mitarbeiter</title><path d="M23.31,44.82a4.22,4.22,0,0,1,.78-.35,2.27,2.27,0,0,1,.1.84c-.62,2.21,1.29,4,.9,6.22,0,.21.25.55.47.73a8.71,8.71,0,0,1,2.32,4.19,113.26,113.26,0,0,0,9.18,20.29c1,1.81,2.15,3.64,4.09,4.68.65.35.21.71.07,1-.75,1.64-1.49,3.28-2.29,4.89a38.6,38.6,0,0,0-3.46,10.58H70.26c-.13-1.33-.27-2.67-.38-4a2.12,2.12,0,0,0-1.32-2c-1.5-.42-1.34-1.45-1.27-2.53,0-.84.07-1.68.16-2.52.53-5,1.44-10,1.29-15.05a2.93,2.93,0,0,1,.1-.65,4.3,4.3,0,0,1,.34.59c.89,2.22,1.75,4.46,2.66,6.67a8.17,8.17,0,0,0,3.56,3.94,3,3,0,0,0,4-.34,7.58,7.58,0,0,0,1.23-1.3,48.42,48.42,0,0,0,2.85-4.15c1.76-3.07,3.37-6.23,5.11-9.31a9.59,9.59,0,0,1,1.72-2c1.15-1.13,2.37-2.18,3.54-3.29.47-.45.87-1,1.33-1.45.09-.09.3-.07.45-.09,0,.17.08.36,0,.49s-.39.5-.45.77a1,1,0,0,0,.22.76.88.88,0,0,0,.79.09c.83-.4,1.61-.86,2.41-1.3V58.73a2.58,2.58,0,0,1-.88-2.53,3.57,3.57,0,0,0-.47-2,1.2,1.2,0,0,0-1.59-.73,2.75,2.75,0,0,1-3.5-3c.1-1.62.29-3.23.43-4.84a6.63,6.63,0,0,0,0-1.26c0-.18-.19-.35-.3-.52-.11.12-.28.23-.33.37-.22.75-.43,1.5-.62,2.25-.33,1.28-.65,2.56-.95,3.84-.14.58-.38.65-.84.3-1.2-.91-2.41-1.79-3.62-2.68-.34-.24-.66-.61-1-.69a4.89,4.89,0,0,0-1.35.14,4,4,0,0,0,.6,1c1.54,1.35,3.12,2.64,4.66,4,.27.24.63.72.56,1-.39,1.43-.92,2.82-1.37,4.23-.19.6-.3,1.22-.44,1.83-.24,1.09-.17,2.42-.78,3.22-2.2,2.84-4.6,5.53-7,8.21-.8.89-.92.79-1.14-.29-.54-2.57-1.19-5.14-1.59-7.74-.47-3.07-.67-6.19-1.11-9.28a38.72,38.72,0,0,0-1.16-5.07A3.21,3.21,0,0,0,71.89,46a40.32,40.32,0,0,0-4.11-.27c-1.82,0-2.88-.52-3.33-2.29a20.68,20.68,0,0,1-.55-4.78c0-2.52.32-5.06.1-7.55-.34-3.8-1.88-7.07-5.33-9.11a21.49,21.49,0,0,0-2.6-1.13H52.46c-.51.21-1,.62-1.53.61a6.77,6.77,0,0,0-5.78,3.12,13.54,13.54,0,0,0-2.3,10.26,36,36,0,0,1-.73,12.87A2.51,2.51,0,0,1,41.28,49c-2.05,1.74-3.65,3.68-3.33,6.6.07.57-.15.76-.72.59-.84-.25-1.6-.52-1.65-1.61a1.83,1.83,0,0,0-.42-1c-.8-1-1.35-1.94-.42-3.19a1.17,1.17,0,0,0-.34-1c-1-.23-1-1-1.24-1.77-.39-1.31-.37-1.21-1.77-.78a2,2,0,0,1-1.58-.67,3.92,3.92,0,0,1-.67-1.81c-.17-.94-.18-1.91-.33-2.86a2,2,0,0,1,.92-2.17c1.16-.75,2.3-1.51,3.46-2.25.81-.51,1.66-1,2.46-1.5a1.28,1.28,0,0,0,.46-1.86c-1.36-2.86-2.09-3.12-4.82-1.58L29.1,33.42A10.65,10.65,0,0,1,24.94,35c-2.75.32-4.89,1.86-6.91,3.6-.4.35-.83.68-1.24,1v1.8c.66.85,1.35,1.67,2,2.55C20.52,46.48,20.69,46.52,23.31,44.82Zm68.18,9.69a1.17,1.17,0,0,1,.75.39.79.79,0,0,1-.14.73c-.44.45-.94.83-1.42,1.24.14-.62.25-1.25.42-1.86C91.15,54.81,91.38,54.5,91.49,54.51ZM33,57c1.56.6,3.12,1.22,4.63,1.92.26.12.38.7.44,1.09.15,1.18.24,2.38.36,3.57h-.11c.1,1,.22,2,.29,3,0,.09-.43.33-.48.29A4.25,4.25,0,0,1,37.3,66c-1.49-2.52-3-5.06-4.43-7.59a8.51,8.51,0,0,1-.34-.83C32.32,57.08,32.57,56.85,33,57Z" transform="translate(-16.79 -20.88)"/></svg>