<svg id="Ebene_1" data-name="Ebene 1" xmlns="http://www.w3.org/2000/svg" viewBox="0 0 42.72 77.63"><title>Blume</title><path d="M53.26,125.93h.17c-3.72-14.7-4.22-29.51-3.1-44.44A8.39,8.39,0,0,0,49.71,79l-.69.16A159.67,159.67,0,0,0,52.62,126C52.83,126,53,125.93,53.26,125.93Z" transform="translate(-28.37 -48.34)"/><path d="M28.37,80.21c12.49,12.18,19.12,27.34,22.42,44.18l-.56.4c-2.28-2.7-4.68-5.31-6.82-8.11-5.2-6.81-9.72-14-12-22.37C30.16,89.68,29.37,84.92,28.37,80.21Z" transform="translate(-28.37 -48.34)"/><path d="M51.4,108.29a16.75,16.75,0,0,1,.05-4.07,50.52,50.52,0,0,1,9.21-19.07A14.66,14.66,0,0,1,62.4,83,36.92,36.92,0,0,1,51.4,108.29Z" transform="translate(-28.37 -48.34)"/><path d="M49.8,77.39c-4,3.06-7.94,1.82-9.94-.57a6.63,6.63,0,0,1-1.36-6.09c.52-2.19,2-3.62,4.32-4.79-3-1.16-5-2.9-5.42-5.83a6.3,6.3,0,0,1,1.09-4.8,6.57,6.57,0,0,1,5.61-3c2.32,0,4.08,1.18,5.88,3,.34-3.13,1.63-5.35,4.32-6.44a6.46,6.46,0,0,1,5.17,0,6.71,6.71,0,0,1,4,4.64c.56,2.14-.1,4.07-1.38,6.16,3.22-.37,5.91.14,7.75,2.72A6.64,6.64,0,0,1,71,67.18c-.42,3.72-3.24,5.84-8.08,6,.88,4.5-.4,8-5.18,9.1C53.9,83.12,51.31,81,49.8,77.39Zm-3-10.63a5.93,5.93,0,0,0,6.79,5,6,6,0,1,0-1.83-11.84A5.89,5.89,0,0,0,46.77,66.76Z" transform="translate(-28.37 -48.34)"/><path d="M57.75,65.09A5.22,5.22,0,0,1,53.47,71a5.18,5.18,0,0,1-1.54-10.25A5.22,5.22,0,0,1,57.75,65.09Z" transform="translate(-28.37 -48.34)"/></svg>