<svg id="Ebene_1" data-name="Ebene 1" xmlns="http://www.w3.org/2000/svg" viewBox="0 0 100.66 104.43"><title>Glühbirne</title><path d="M56.94,118.88H49c-1.24,0-1.81-.54-1.84-1.76a18.12,18.12,0,0,0-4.5-11.23c-1.34-1.62-2.7-3.22-4-4.86A25.49,25.49,0,0,1,32.9,87.37a23.79,23.79,0,0,1,1.6-12A22.31,22.31,0,0,1,48.15,62.75a25.46,25.46,0,0,1,19.73.86C74.71,66.77,79.19,72,80.67,79.47a24.83,24.83,0,0,1-4.39,20.2c-1.62,2.22-3.45,4.29-5.17,6.43a17.91,17.91,0,0,0-4.06,8.53c-.14.88-.21,1.76-.28,2.65a1.56,1.56,0,0,1-1.67,1.6Zm6.76-3.17c0-.2.07-.36.09-.52a18.18,18.18,0,0,1,3.11-8.49c1.69-2.41,3.52-4.73,5.44-7A22.58,22.58,0,0,0,78,82.61a18.35,18.35,0,0,0-10-15.5,22.69,22.69,0,0,0-19-1.33,18.68,18.68,0,0,0-12,12,22.13,22.13,0,0,0-.82,9.67,21,21,0,0,0,4.59,11c1.51,1.91,3.11,3.77,4.63,5.68A21.54,21.54,0,0,1,50,113.94c.11.58.19,1.17.28,1.77Z" transform="translate(-6.63 -33.69)"/><path d="M59.13,44.21c0,2.81,0,5.61,0,8.42a2.17,2.17,0,0,1-1.61,2.14,2.09,2.09,0,0,1-2.38-1,2.66,2.66,0,0,1-.33-1.23c0-5.54,0-11.08,0-16.62a2.14,2.14,0,0,1,2.08-2.26,2.07,2.07,0,0,1,2.22,2.16c0,2.78,0,5.57,0,8.36Z" transform="translate(-6.63 -33.69)"/><path d="M37,106.15a2.1,2.1,0,0,1-.68,1.6L24.49,119.54a2.17,2.17,0,0,1-3.12,0,2.14,2.14,0,0,1,0-3.08c2.44-2.45,4.9-4.88,7.35-7.33,1.46-1.45,2.92-2.9,4.36-4.37a2.22,2.22,0,0,1,2.56-.63A2.14,2.14,0,0,1,37,106.15Z" transform="translate(-6.63 -33.69)"/><path d="M37,61.77a2.14,2.14,0,0,1-1.31,2.07,2.08,2.08,0,0,1-2.4-.49L26.3,56.41c-1.62-1.62-3.24-3.22-4.84-4.84A2.15,2.15,0,0,1,22,48a2,2,0,0,1,2.28.33c1,1,2,2,3,2.94l8.61,8.59A2.64,2.64,0,0,1,37,61.77Z" transform="translate(-6.63 -33.69)"/><path d="M77,106.14a2.16,2.16,0,0,1,3.7-1.49l9.72,9.71,2,2a2.2,2.2,0,0,1,.13,3.2,2.17,2.17,0,0,1-3.15-.1q-5.9-5.86-11.76-11.74A2.16,2.16,0,0,1,77,106.14Z" transform="translate(-6.63 -33.69)"/><path d="M77,62.11a2.42,2.42,0,0,1,.74-1.9l8.6-8.6,3.15-3.15a2.17,2.17,0,0,1,3.7,1.13,2.05,2.05,0,0,1-.61,1.89L83.83,60.2c-1.08,1.07-2.13,2.17-3.23,3.22a2,2,0,0,1-2.36.4A2,2,0,0,1,77,62.11Z" transform="translate(-6.63 -33.69)"/><path d="M17.19,86.16H8.82a2.16,2.16,0,0,1-1.54-3.68A2.14,2.14,0,0,1,9,81.85c2.39,0,4.79,0,7.18,0,3.14,0,6.27,0,9.41,0a2.15,2.15,0,1,1,0,4.3Z" transform="translate(-6.63 -33.69)"/><path d="M96.72,86.16c-2.81,0-5.62,0-8.43,0a2.12,2.12,0,0,1-2.12-1.75A2.14,2.14,0,0,1,87.45,82a2.85,2.85,0,0,1,1-.16q8.27,0,16.53,0a2.16,2.16,0,1,1,0,4.3Z" transform="translate(-6.63 -33.69)"/><path d="M57,123.76H49.63a1.5,1.5,0,0,1-1.48-2.11,1.61,1.61,0,0,1,1.64-.92c3.91,0,7.82,0,11.74,0h2.66a1.53,1.53,0,0,1,1.71,1.55,1.51,1.51,0,0,1-1.71,1.48Z" transform="translate(-6.63 -33.69)"/><path d="M56.92,125.61h7.33a1.51,1.51,0,1,1,0,3H49.68a1.52,1.52,0,1,1,0-3h7.23Z" transform="translate(-6.63 -33.69)"/><path d="M56.93,133.47H49.54a1.49,1.49,0,0,1-1.49-1.18,1.47,1.47,0,0,1,.93-1.7,1.74,1.74,0,0,1,.68-.11H64.27a1.5,1.5,0,1,1,0,3Z" transform="translate(-6.63 -33.69)"/><path d="M61.24,135.37a4.69,4.69,0,0,1-8.55,0Z" transform="translate(-6.63 -33.69)"/></svg>