<svg id="Ebene_1" data-name="Ebene 1" xmlns="http://www.w3.org/2000/svg" viewBox="0 0 95.04 103.92"><defs><style>.cls-1{fill:#fff;}</style></defs><title>Hände</title><path class="cls-1" d="M9.57,137.86V33.94h95V137.86ZM79.52,82.78c-1-5.18-2-10.3-3-15.24A10,10,0,0,1,74,66.45a37.7,37.7,0,0,0-9.62-5.78,3.82,3.82,0,0,0-2.53-.2,5,5,0,0,1-3.82-.17,14.31,14.31,0,0,0-1.72-.54c-2-.56-3.93-1.13-5.92,0-2.84,1.62-5.71,3.18-8.54,4.82-1.32.76-2.37,2.08-4.12,1.8l-3.3,16.91,1.78.26c-.19,2.19,1.27,4,3.32,3.56a3.67,3.67,0,0,0,.84,3.32c.86,1.06,1.81,1.58,3.22.79-.5,2.07-.24,2.64,1.38,3.59a3.34,3.34,0,0,0,3.94,0c-.26,2,.92,2.74,2.26,3.29s2.27-.26,3-1.39c.7.23,1.34.45,2,.64,1.4.44,2.86.8,4.09-.29a1.58,1.58,0,0,1,2-.21,3.58,3.58,0,0,0,4.39-.75c.52-.48.94-1.06,1.39-1.56,2.44.53,4.84-1.24,5.8-4.18,3.52-1.19,4.87-3.74,4.43-7.38Zm-53,2.7L32.25,62.2l-9.74-2.84L17,82.6Zm60.94,1,9.56-2.88L91.53,60.32,81.8,63.16C83.7,70.93,85.58,78.61,87.5,86.44ZM77.37,66.7C78.6,72.92,79.8,79,81,85.26l4.62-1c-1.53-6.26-3-12.31-4.53-18.44ZM32.92,64.82,28.4,83.24l4.58,1c1.21-6.29,2.7-12.35,3.56-18.59Z" transform="translate(-9.57 -33.94)"/><path d="M79.52,82.78,78.34,83c.44,3.64-.91,6.19-4.43,7.38-1,2.94-3.36,4.71-5.8,4.18-.45.5-.87,1.08-1.39,1.56a3.58,3.58,0,0,1-4.39.75,1.58,1.58,0,0,0-2,.21c-1.23,1.09-2.69.73-4.09.29-.64-.19-1.28-.41-2-.64-.73,1.13-1.61,2-3,1.39s-2.52-1.3-2.26-3.29a3.34,3.34,0,0,1-3.94,0c-1.62-1-1.88-1.52-1.38-3.59-1.41.79-2.36.27-3.22-.79a3.67,3.67,0,0,1-.84-3.32c-2,.4-3.51-1.37-3.32-3.56l-1.78-.26,3.3-16.91c1.75.28,2.8-1,4.12-1.8,2.83-1.64,5.7-3.2,8.54-4.82,2-1.13,4-.56,5.92,0a14.31,14.31,0,0,1,1.72.54,5,5,0,0,0,3.82.17,3.82,3.82,0,0,1,2.53.2A37.7,37.7,0,0,1,74,66.45a10,10,0,0,0,2.5,1.09C77.51,72.48,78.51,77.6,79.52,82.78ZM57.71,88l.31-.51c1.06.57,2.13,1.12,3.17,1.72,2.14,1.25,4.21,2.63,6.4,3.78a3.41,3.41,0,0,0,5-2.63c-1.85-1.08-3.71-2.09-5.48-3.24s-3.45-2.45-5.17-3.68l.26-.42c.73.35,1.49.67,2.19,1.07,2.58,1.44,5.1,3,7.74,4.33,2.17,1.09,4,.18,4.86-2.13.63-1.73.38-2.46-1.25-3.32a49.69,49.69,0,0,1-11.93-8.78,13.86,13.86,0,0,1-3.56-4.9,4.14,4.14,0,0,0,2.22-3.48A12.1,12.1,0,0,1,60,68.33a13.54,13.54,0,0,1-3.53.94l-.1-1.46c-.58,1.11-1,2-1.55,2.92a7.07,7.07,0,0,1-8.45,2.61c-1.24-.57-1.47-1.21-.73-2.34.46-.7,1-1.34,1.52-2,1-1.32,2.15-2.58,3.06-4a4.68,4.68,0,0,1,2.92-2.1c1.27-.33,2.54-.7,3.81-1.07a7.92,7.92,0,0,0,.84-.42c-1.09-.32-2-.53-2.77-.81a5.33,5.33,0,0,0-4.51.37c-2.24,1.23-4.51,2.4-6.71,3.69-1.7,1-3.31,2.17-5.2,3.42L35.92,82l.36.24c1.06.52,1.81-.18,2.64-.65a2.14,2.14,0,0,1,2.82.43c.78.89.27,1.61-.27,2.35s-.91,1.3-1.36,2l.5.44a22.89,22.89,0,0,1,1.63-2,16.2,16.2,0,0,1,2.31-2.07,2.66,2.66,0,0,1,3.31.41c.91,1,.32,1.83-.29,2.66-.9,1.23-1.81,2.45-2.71,3.67-.33.45-.64.92-1,1.38l.24.18c1.62-1.76,3.22-3.54,4.87-5.27s3.12-1.22,3.93.85a3.12,3.12,0,0,1-.43,3c-.84,1.31-1.76,2.57-2.64,3.86-.19.28-.35.58-.52.88l.32.22c.38-.45.76-.92,1.16-1.35a15.18,15.18,0,0,1,1.29-1.25c1-.85,2.12-.79,2.74.34a6.05,6.05,0,0,1,.37,2.47,3.33,3.33,0,0,1-.32,1.06c2.25,1.22,3.91,1.26,4.92.15l-4-2.93.21-.34c.32.16.66.31,1,.49,1.67.95,3.29,2,5,2.83,2,1,3.55.41,4.7-1.59Z" transform="translate(-9.57 -33.94)"/><path d="M26.56,85.48,17,82.6l5.52-23.24,9.74,2.84Z" transform="translate(-9.57 -33.94)"/><path d="M87.5,86.44c-1.92-7.83-3.8-15.51-5.7-23.28l9.73-2.84,5.53,23.24Z" transform="translate(-9.57 -33.94)"/><path d="M77.37,66.7l3.76-.92c1.51,6.13,3,12.18,4.53,18.44l-4.62,1C79.8,79,78.6,72.92,77.37,66.7Z" transform="translate(-9.57 -33.94)"/><path d="M32.92,64.82l3.62.87C35.68,71.93,34.19,78,33,84.28l-4.58-1Z" transform="translate(-9.57 -33.94)"/><path class="cls-1" d="M57.71,88l9.07,6.25c-1.15,2-2.67,2.59-4.7,1.59C60.36,95,58.74,94,57.07,93c-.31-.18-.65-.33-1-.49l-.21.34,4,2.93c-1,1.11-2.67,1.07-4.92-.15a3.33,3.33,0,0,0,.32-1.06,6.05,6.05,0,0,0-.37-2.47C54.25,91,53.14,91,52.13,91.8a15.18,15.18,0,0,0-1.29,1.25c-.4.43-.78.9-1.16,1.35l-.32-.22c.17-.3.33-.6.52-.88.88-1.29,1.8-2.55,2.64-3.86a3.12,3.12,0,0,0,.43-3c-.81-2.07-2.41-2.46-3.93-.85s-3.25,3.51-4.87,5.27l-.24-.18c.31-.46.62-.93,1-1.38.9-1.22,1.81-2.44,2.71-3.67.61-.83,1.2-1.66.29-2.66a2.66,2.66,0,0,0-3.31-.41,16.2,16.2,0,0,0-2.31,2.07,22.89,22.89,0,0,0-1.63,2l-.5-.44c.45-.65.89-1.31,1.36-2s1.05-1.46.27-2.35a2.14,2.14,0,0,0-2.82-.43c-.83.47-1.58,1.17-2.64.65L35.92,82l2.7-13.88c1.89-1.25,3.5-2.41,5.2-3.42C46,63.37,48.29,62.2,50.53,61A5.33,5.33,0,0,1,55,60.6c.82.28,1.68.49,2.77.81a7.92,7.92,0,0,1-.84.42c-1.27.37-2.54.74-3.81,1.07A4.68,4.68,0,0,0,50.24,65c-.91,1.41-2,2.67-3.06,4-.52.67-1.06,1.31-1.52,2-.74,1.13-.51,1.77.73,2.34a7.07,7.07,0,0,0,8.45-2.61c.53-.87,1-1.81,1.55-2.92l.1,1.46A13.54,13.54,0,0,0,60,68.33a12.1,12.1,0,0,0,2.41-2.49,4.14,4.14,0,0,1-2.22,3.48,13.86,13.86,0,0,0,3.56,4.9A49.69,49.69,0,0,0,75.7,83c1.63.86,1.88,1.59,1.25,3.32-.84,2.31-2.69,3.22-4.86,2.13-2.64-1.33-5.16-2.89-7.74-4.33-.7-.4-1.46-.72-2.19-1.07l-.26.42c1.72,1.23,3.4,2.52,5.17,3.68s3.63,2.16,5.48,3.24a3.41,3.41,0,0,1-5,2.63c-2.19-1.15-4.26-2.53-6.4-3.78-1-.6-2.11-1.15-3.17-1.72Z" transform="translate(-9.57 -33.94)"/></svg>