<svg id="Ebene_1" data-name="Ebene 1" xmlns="http://www.w3.org/2000/svg" viewBox="0 0 44.35 74.17"><title>Offene Tür</title><path d="M61.76,85.9v23.28c0,4.17,0,8.34,0,12.51a1.32,1.32,0,0,1-.46,1.08,1,1,0,0,1-1.1.18c-2.2-.79-4.42-1.56-6.63-2.34l-9.11-3.25-8.68-3.07a1.37,1.37,0,0,1-1.09-1.56c.05-4.28.12-8.57.13-12.86,0-6.16,0-12.33,0-18.5q0-8.5,0-17c0-2.34.05-4.68.09-7a1.37,1.37,0,0,1,1.22-1.53c2.82-.75,5.64-1.49,8.44-2.31,2.63-.76,5.22-1.65,7.85-2.42s5.24-1.42,7.85-2.15a1.13,1.13,0,0,1,1.52,1.18c0,4.28,0,8.55,0,12.82v23Zm-4.07.42a2.61,2.61,0,0,0-.47-1.55,1.42,1.42,0,0,0-2.38,0,2.42,2.42,0,0,0,0,2.84,1.38,1.38,0,0,0,2.14.3A2.31,2.31,0,0,0,57.69,86.32Z" transform="translate(-34.69 -48.87)"/><path d="M74.26,60.08H62.91V56l.35,0H74.4a4.56,4.56,0,0,1,4,2.11A3.84,3.84,0,0,1,79,60.19q0,10.19,0,20.37c0,.28,0,.56,0,.84v25.94c0,1.87,0,3.74,0,5.61a1.55,1.55,0,0,1-1.59,1.62c-.54,0-1.07,0-1.61,0A1.52,1.52,0,0,1,74.26,113V60.08Z" transform="translate(-34.69 -48.87)"/></svg>