<svg id="Ebene_1" data-name="Ebene 1" xmlns="http://www.w3.org/2000/svg" viewBox="0 0 96.24 96.24"><defs><style>.cls-1{fill:#fff;}</style></defs><title>Zahnräder</title><path class="cls-1" d="M56.75,134H9.84c-.28,0-.56,0-.84,0s-.27,0-.25-.25a5.77,5.77,0,0,0,0-.72V38.75a5.77,5.77,0,0,0,0-.72c0-.21,0-.27.25-.24s.48,0,.72,0H104c.24,0,.48,0,.72,0s.27,0,.25.24a5.77,5.77,0,0,0,0,.72v94.3a5.77,5.77,0,0,0,0,.72c0,.21,0,.27-.25.25s-.56,0-.84,0ZM26.92,106.65c.16.54.27,1,.42,1.37a19.11,19.11,0,0,0,4.93,7.41c.74.69.73.7,1.65.24,1.57-.79,3.17-1.53,4.71-2.38a1.62,1.62,0,0,1,1.95.13A13.74,13.74,0,0,0,43.4,115a2,2,0,0,1,1.34,2c.13,1.63.38,3.25.44,4.87a1.33,1.33,0,0,0,1.16,1.4,17.36,17.36,0,0,0,7.45.36c.75-.13,1.48-.32,2.22-.51a.93.93,0,0,0,.76-.93c.13-1.83.34-3.65.48-5.48a1.54,1.54,0,0,1,1-1.55,14.42,14.42,0,0,0,3.82-2.21,1.13,1.13,0,0,1,1.33,0l5,2.35c1,.44,1,.43,1.78-.29a18.18,18.18,0,0,0,4.8-8.16c.28-1,.27-1-.54-1.57l-4.73-3.46a.87.87,0,0,1-.38-.91,18.66,18.66,0,0,0-.08-5.73,1.24,1.24,0,0,1,.54-1.34c1.47-1.1,2.91-2.24,4.36-3.36.93-.72,1-.78.57-1.9a19.41,19.41,0,0,0-4.8-7.63c-.81-.77-1-.82-2-.32-1.54.76-3.08,1.52-4.61,2.31a1.55,1.55,0,0,1-1.86-.11,14.15,14.15,0,0,0-2.94-1.59,1.86,1.86,0,0,1-1.29-1.78c-.12-1.83-.33-3.65-.47-5.48A.85.85,0,0,0,56,73c-.9-.15-1.79-.32-2.69-.48a17.51,17.51,0,0,0-7.34.51c-.45.11-.7.31-.73.79-.06.87-.15,1.75-.24,2.62-.14,1.22-.29,2.45-.42,3.67,0,.37-.24.51-.56.68-1.4.76-2.79,1.54-4.13,2.4a1.13,1.13,0,0,1-1.3.1c-1.64-.81-3.3-1.59-5-2.36-1-.49-1.19-.46-2,.35A19.34,19.34,0,0,0,27,89.07c-.38,1.21-.37,1.23.64,2,1.52,1.11,3,2.24,4.53,3.33a.89.89,0,0,1,.39,1,20.37,20.37,0,0,0,.1,5.73,1,1,0,0,1-.35,1.07c-.28.22-.55.46-.83.67-1.36,1-2.73,2.08-4.08,3.14A3.72,3.72,0,0,0,26.92,106.65Zm47.5-29a6.29,6.29,0,0,0,3.21-.82c.71-.36.79-.51.68-1.33s-.24-1.74-.39-2.6a1,1,0,0,1,.39-1c.66-.51,1.33-1,2-1.57a.92.92,0,0,1,1.09-.12c.73.32,1.48.58,2.23.87s1.08.28,1.68-.4a6.43,6.43,0,0,0,1.47-3.1A1.22,1.22,0,0,0,86,65.92a5.32,5.32,0,0,1-1-.6c-.61-.38-1.45-.64-1.73-1.19s-.08-1.48-.14-2.23a1,1,0,0,1,.65-1c.77-.42,1.52-.88,2.26-1.35s1-.8.64-1.67a15.86,15.86,0,0,0-1.37-2.77c-.54-.88-.86-.92-1.8-.54s-1.7.7-2.56,1a1,1,0,0,1-.75,0c-.89-.6-1.75-1.25-2.61-1.89a.81.81,0,0,1-.36-.83c.13-.82.22-1.65.34-2.48.17-1.09,0-1.33-1.06-1.79A8,8,0,0,0,73,48.09c-.53,0-.76.27-.87.78-.2.94-.49,1.85-.73,2.78a1.17,1.17,0,0,1-1.11,1,9.88,9.88,0,0,0-1.72.5c-.82.25-.85.24-1.41-.43s-1-1.06-1.43-1.61a.87.87,0,0,0-1.17-.23,7.23,7.23,0,0,0-3.22,2.56.8.8,0,0,0,0,1,13,13,0,0,0,1,1.5,2.84,2.84,0,0,1,.35,3.56c-.27.53-.5.85-1.1.88-.87.05-1.74.15-2.62.18a.93.93,0,0,0-1,.8,9.14,9.14,0,0,0-.1,3.57c.15,1,.29,1.05,1.33,1.18.43,0,.86.16,1.29.18,2.34.09,1.81-.22,3,2A1.36,1.36,0,0,1,63.3,70c-.48.69-.88,1.43-1.4,2.08A.9.9,0,0,0,62,73.33,8.68,8.68,0,0,0,65,75.76a.9.9,0,0,0,1.17-.24c.46-.5,1-.94,1.41-1.47a1.94,1.94,0,0,1,2.64-.78,2.82,2.82,0,0,0,1.05.23c.54,0,.75.32.87.8.18.7.4,1.38.62,2.07C73.18,77.61,73.18,77.61,74.42,77.61Z" transform="translate(-8.75 -37.78)"/><path d="M26.92,106.65a3.72,3.72,0,0,1,.52-.68c1.35-1.06,2.72-2.09,4.08-3.14.28-.21.55-.45.83-.67a1,1,0,0,0,.35-1.07,20.37,20.37,0,0,1-.1-5.73.89.89,0,0,0-.39-1c-1.52-1.09-3-2.22-4.53-3.33-1-.74-1-.76-.64-2a19.34,19.34,0,0,1,4.58-7.77c.79-.81.94-.84,2-.35,1.67.77,3.33,1.55,5,2.36a1.13,1.13,0,0,0,1.3-.1c1.34-.86,2.73-1.64,4.13-2.4.32-.17.52-.31.56-.68.13-1.22.28-2.45.42-3.67.09-.87.18-1.75.24-2.62,0-.48.28-.68.73-.79a17.51,17.51,0,0,1,7.34-.51c.9.16,1.79.33,2.69.48a.85.85,0,0,1,.79.88c.14,1.83.35,3.65.47,5.48a1.86,1.86,0,0,0,1.29,1.78,14.15,14.15,0,0,1,2.94,1.59,1.55,1.55,0,0,0,1.86.11c1.53-.79,3.07-1.55,4.61-2.31,1-.5,1.19-.45,2,.32a19.41,19.41,0,0,1,4.8,7.63c.4,1.12.36,1.18-.57,1.9-1.45,1.12-2.89,2.26-4.36,3.36a1.24,1.24,0,0,0-.54,1.34,18.66,18.66,0,0,1,.08,5.73.87.87,0,0,0,.38.91l4.73,3.46c.81.6.82.59.54,1.57a18.18,18.18,0,0,1-4.8,8.16c-.74.72-.83.73-1.78.29l-5-2.35a1.13,1.13,0,0,0-1.33,0,14.42,14.42,0,0,1-3.82,2.21,1.54,1.54,0,0,0-1,1.55c-.14,1.83-.35,3.65-.48,5.48a.93.93,0,0,1-.76.93c-.74.19-1.47.38-2.22.51a17.36,17.36,0,0,1-7.45-.36,1.33,1.33,0,0,1-1.16-1.4c-.06-1.62-.31-3.24-.44-4.87a2,2,0,0,0-1.34-2,13.74,13.74,0,0,1-2.82-1.53,1.62,1.62,0,0,0-1.95-.13c-1.54.85-3.14,1.59-4.71,2.38-.92.46-.91.45-1.65-.24A19.11,19.11,0,0,1,27.34,108C27.19,107.61,27.08,107.19,26.92,106.65Zm33.46-8.58a9.42,9.42,0,0,0-9.27-9.45A9.46,9.46,0,1,0,51,107.54,9.34,9.34,0,0,0,60.38,98.07Z" transform="translate(-8.75 -37.78)"/><path d="M74.42,77.61c-1.24,0-1.24,0-1.64-1.24-.22-.69-.44-1.37-.62-2.07-.12-.48-.33-.77-.87-.8a2.82,2.82,0,0,1-1.05-.23,1.94,1.94,0,0,0-2.64.78c-.42.53-.95,1-1.41,1.47a.9.9,0,0,1-1.17.24A8.68,8.68,0,0,1,62,73.33.9.9,0,0,1,61.9,72c.52-.65.92-1.39,1.4-2.08a1.36,1.36,0,0,0,.11-1.64c-1.2-2.22-.67-1.91-3-2-.43,0-.86-.13-1.29-.18-1-.13-1.18-.19-1.33-1.18a9.14,9.14,0,0,1,.1-3.57.93.93,0,0,1,1-.8c.88,0,1.75-.13,2.62-.18.6,0,.83-.35,1.1-.88A2.84,2.84,0,0,0,62.25,56a13,13,0,0,1-1-1.5.8.8,0,0,1,0-1,7.23,7.23,0,0,1,3.22-2.56.87.87,0,0,1,1.17.23c.46.55,1,1.06,1.43,1.61s.59.68,1.41.43a9.88,9.88,0,0,1,1.72-.5,1.17,1.17,0,0,0,1.11-1c.24-.93.53-1.84.73-2.78.11-.51.34-.77.87-.78a8,8,0,0,1,3.53.47c1.07.46,1.23.7,1.06,1.79-.12.83-.21,1.66-.34,2.48a.81.81,0,0,0,.36.83c.86.64,1.72,1.29,2.61,1.89a1,1,0,0,0,.75,0c.86-.31,1.7-.68,2.56-1s1.26-.34,1.8.54a15.86,15.86,0,0,1,1.37,2.77c.33.87.16,1.16-.64,1.67s-1.49.93-2.26,1.35a1,1,0,0,0-.65,1c.06.75-.17,1.63.14,2.23s1.12.81,1.73,1.19a5.32,5.32,0,0,0,1,.6,1.22,1.22,0,0,1,.73,1.57,6.43,6.43,0,0,1-1.47,3.1c-.6.68-.83.72-1.68.4s-1.5-.55-2.23-.87a.92.92,0,0,0-1.09.12c-.63.55-1.3,1.06-2,1.57a1,1,0,0,0-.39,1c.15.86.28,1.73.39,2.6s0,1-.68,1.33A6.29,6.29,0,0,1,74.42,77.61ZM72.58,57.67A5.26,5.26,0,0,0,67.15,63a5.37,5.37,0,0,0,10.74.1A5.28,5.28,0,0,0,72.58,57.67Z" transform="translate(-8.75 -37.78)"/><path class="cls-1" d="M60.38,98.07a9.34,9.34,0,0,1-9.4,9.47,9.46,9.46,0,1,1,9.4-9.47Z" transform="translate(-8.75 -37.78)"/><path class="cls-1" d="M72.58,57.67a5.28,5.28,0,0,1,5.31,5.45A5.37,5.37,0,0,1,67.15,63,5.26,5.26,0,0,1,72.58,57.67Z" transform="translate(-8.75 -37.78)"/></svg>