<svg id="Ebene_1" data-name="Ebene 1" xmlns="http://www.w3.org/2000/svg" viewBox="0 0 115.4 77.3"><defs><style>.cls-1{fill:#010101;}.cls-2{fill:#1d1d1b;}</style></defs><title>20_Geschäfte</title><path class="cls-1" d="M83.59,64H30.15V47.25H83.59ZM32.76,61.37H81V49.87H32.76Z" transform="translate(0.83 -47.25)"/><path class="cls-1" d="M114.57,60.86V51.54H86.21V66.61H27.53V51.54H-.83v9.32H4.51v54.39H-.82v9.3H114.56v-9.3h-5.33V60.86ZM1.79,54.15H24.91v4.09H1.79ZM76.37,71.6h28.69v35.18H76.37Zm-2.62,0v3.88H40V71.6ZM42.4,78.08H55.57v37.17H42.4Zm15.77,0H71.34v37.17H58.17ZM37.37,71.6v35.18H8.69V71.6ZM112,122H1.78v-4.1H112ZM88.83,54.15H112v4.09H88.83Z" transform="translate(0.83 -47.25)"/><path class="cls-2" d="M35.52,51.78h2.4v2.35c0,.21,0,.38,0,.53a3,3,0,0,1,0,.36,2.21,2.21,0,0,1,.69-.65,1.69,1.69,0,0,1,.86-.22,1.81,1.81,0,0,1,1.47.74,3.08,3.08,0,0,1,.57,1.92,3.2,3.2,0,0,1-.56,2,1.78,1.78,0,0,1-1.48.74,1.72,1.72,0,0,1-.9-.23,2.11,2.11,0,0,1-.73-.7v.74H35.52Zm3.59,5.06a.75.75,0,0,0-.17-.53.58.58,0,0,0-.46-.2.58.58,0,0,0-.45.2.76.76,0,0,0-.18.53.8.8,0,0,0,.18.54.55.55,0,0,0,.45.21.57.57,0,0,0,.46-.21A.8.8,0,0,0,39.11,56.84Z" transform="translate(0.83 -47.25)"/><path class="cls-2" d="M42.38,59.35V51.78h2.45v7.57Z" transform="translate(0.83 -47.25)"/><path class="cls-2" d="M51.6,56.84a2.73,2.73,0,0,1-1.84,2.52,3.3,3.3,0,0,1-1.1.18,3.52,3.52,0,0,1-1.1-.17,2.73,2.73,0,0,1-.92-.53,2.53,2.53,0,0,1-.69-.9,2.49,2.49,0,0,1-.25-1.1A2.42,2.42,0,0,1,46,55.75a2.65,2.65,0,0,1,.69-.91,2.88,2.88,0,0,1,.92-.52,3.25,3.25,0,0,1,1.1-.18,3.3,3.3,0,0,1,1.1.18,2.84,2.84,0,0,1,.91.52,2.59,2.59,0,0,1,.93,2Zm-2.94.69a.56.56,0,0,0,.43-.19.86.86,0,0,0,0-1,.57.57,0,0,0-.43-.19.57.57,0,0,0-.44.19.73.73,0,0,0-.16.5.72.72,0,0,0,.16.5A.53.53,0,0,0,48.66,57.53Z" transform="translate(0.83 -47.25)"/><path class="cls-2" d="M58.1,56.84a2.55,2.55,0,0,1-.24,1.09,2.68,2.68,0,0,1-.7.91,2.53,2.53,0,0,1-.9.52,3.31,3.31,0,0,1-1.11.18,3.46,3.46,0,0,1-1.09-.17,2.73,2.73,0,0,1-.92-.53,2.53,2.53,0,0,1-.69-.9,2.49,2.49,0,0,1-.25-1.1,2.42,2.42,0,0,1,.25-1.09,2.65,2.65,0,0,1,.69-.91,2.88,2.88,0,0,1,.92-.52,3.2,3.2,0,0,1,1.09-.18,3.31,3.31,0,0,1,1.11.18,2.84,2.84,0,0,1,.91.52,2.59,2.59,0,0,1,.93,2Zm-3,.69a.53.53,0,0,0,.43-.19.69.69,0,0,0,.17-.5.73.73,0,0,0-.16-.5.58.58,0,0,0-.44-.19.56.56,0,0,0-.43.19.74.74,0,0,0-.17.5.72.72,0,0,0,.17.5A.53.53,0,0,0,55.15,57.53Z" transform="translate(0.83 -47.25)"/><path class="cls-2" d="M58.93,59.35V54.3h2.34V55a2,2,0,0,1,.64-.66,1.62,1.62,0,0,1,1.68,0,1.69,1.69,0,0,1,.57.81,2.24,2.24,0,0,1,.71-.8,1.68,1.68,0,0,1,.93-.27,1.55,1.55,0,0,1,1.19.49A1.93,1.93,0,0,1,67.43,56v3.4H65.06V56.81a1.25,1.25,0,0,0-.07-.52.26.26,0,0,0-.24-.14.31.31,0,0,0-.29.17,1,1,0,0,0-.1.49v2.54H62V56.81A1.19,1.19,0,0,0,62,56.3a.26.26,0,0,0-.25-.15.31.31,0,0,0-.29.17.9.9,0,0,0-.1.49v2.54Z" transform="translate(0.83 -47.25)"/><path class="cls-2" d="M69.77,55.74l1.16-3.54h2.44l-1.68,3.54Z" transform="translate(0.83 -47.25)"/><path class="cls-2" d="M73.29,59l.65-1.56a4.49,4.49,0,0,0,.74.42,1.61,1.61,0,0,0,.58.14.46.46,0,0,0,.29-.08.25.25,0,0,0,.11-.21c0-.12-.15-.22-.44-.28l-.23,0a2.16,2.16,0,0,1-1-.53,1.28,1.28,0,0,1-.32-.91,1.54,1.54,0,0,1,.66-1.29A2.76,2.76,0,0,1,76,54.14a5.69,5.69,0,0,1,1,.1,4.62,4.62,0,0,1,.91.3l-.6,1.52a3.6,3.6,0,0,0-.62-.34,1.2,1.2,0,0,0-.47-.12.54.54,0,0,0-.27.07.22.22,0,0,0-.1.19c0,.13.19.23.57.31l.22,0a2.27,2.27,0,0,1,1.08.52,1.17,1.17,0,0,1,.35.88A1.68,1.68,0,0,1,77.42,59a2.85,2.85,0,0,1-1.8.53,4.81,4.81,0,0,1-1.2-.14A5.1,5.1,0,0,1,73.29,59Z" transform="translate(0.83 -47.25)"/></svg>