<svg id="Ebene_1" data-name="Ebene 1" xmlns="http://www.w3.org/2000/svg" viewBox="0 0 62.26 66.59"><title>Eigene Akademie</title><path d="M36.65,81.49H29.58l-.09-.15L60.63,52.2,91.75,81.32l0,.14H84.65v37.32h-48ZM37.38,118H83.89V80.73H90L60.63,53.22c-9.8,9.17-19.54,18.28-29.41,27.53h6.16Z" transform="translate(-29.49 -52.2)"/><path d="M61.16,82c1,.28,2.05.56,3.09.86l14.39,4.19c.49.14,1,.25,1.49.43.18.06.31.27.46.41-.15.13-.29.32-.47.38-.84.28-1.7.51-2.55.76q-7.92,2.3-15.83,4.57a2.3,2.3,0,0,1-1.22,0Q51.35,91,42.2,88.37c-.22-.07-.39-.3-.59-.46.2-.15.37-.39.59-.46l18.47-5.32C60.81,82.09,61,82.07,61.16,82Z" transform="translate(-29.49 -52.2)"/><path d="M49.35,91.5l3.29.92c2.57.74,5.13,1.5,7.71,2.19a3.17,3.17,0,0,0,1.59,0c3.74-1,7.47-2.11,11.2-3.18l.83-.21v.87c0,2.08-.07,4.17,0,6.25a2.71,2.71,0,0,1-1.73,2.83,20,20,0,0,1-3.9,1.36,30.36,30.36,0,0,1-15.63-.6,10.89,10.89,0,0,1-1.36-.58,3.12,3.12,0,0,1-2.06-3.26c.13-1.87,0-3.76,0-5.65Z" transform="translate(-29.49 -52.2)"/><path d="M42.59,89.66c1.16.06,1.18.08,1.18,1.08,0,.74,0,1.48,0,2.23a6.22,6.22,0,0,0,.58,3.44A1.24,1.24,0,0,1,44,98a1.22,1.22,0,0,1-1.51.14,1.09,1.09,0,0,1-.59-1.39c1-2.17.49-4.47.63-6.71C42.57,90,42.58,89.83,42.59,89.66Z" transform="translate(-29.49 -52.2)"/></svg>