<svg id="Ebene_1" data-name="Ebene 1" xmlns="http://www.w3.org/2000/svg" viewBox="0 0 88.25 88.25"><defs><style>.cls-1{fill:#fff;}</style></defs><title>individuelle Einarbeitungszeit</title><path class="cls-1" d="M102.09,131.12H13.84V42.87h88.25ZM90.73,73.89c-.1-.23-.15-.36-.2-.48C90,72.26,89.59,71.09,89,70a37.89,37.89,0,0,0-20.35-18.6,36.93,36.93,0,0,0-19-2.28,37.87,37.87,0,0,0-16.07,6.14A37.35,37.35,0,0,0,18.92,73.92,38.06,38.06,0,0,0,17,92.63a37.13,37.13,0,0,0,5.53,14.9,38.19,38.19,0,0,0,14.56,13.36,37.61,37.61,0,0,0,12.91,4,38.63,38.63,0,0,0,9.67,0,37.38,37.38,0,0,0,11.75-3.47,3.3,3.3,0,0,0,1.61-1.68,3.47,3.47,0,0,0-4.72-4.5,30.2,30.2,0,0,1-10,2.86,31.29,31.29,0,0,1-30.89-15.95,31.3,31.3,0,0,1,8.7-40.31,30.67,30.67,0,0,1,22.21-6,29.69,29.69,0,0,1,11.41,3.66A31.25,31.25,0,0,1,84,75.69c.21.52.38,1,.6,1.68l-1.11-.51c-1.72-.79-3.44-1.59-5.16-2.37a3.45,3.45,0,1,0-2.89,6.26l14,6.45a3.44,3.44,0,0,0,4.94-2.11q.89-2.7,1.75-5.41c1-3.11,2-6.22,3-9.33a3.35,3.35,0,0,0-.79-3.52,3.43,3.43,0,0,0-5.73,1.24c-.35,1-.63,2-1,2.94S91.07,72.86,90.73,73.89Zm-39.67,3.2h0c0,3.28,0,6.55,0,9.83a3.7,3.7,0,0,0,1.18,2.82q4.25,4,8.51,7.93a3.8,3.8,0,1,0,5-5.71L59,85.68a1,1,0,0,1-.34-.82c0-1.72,0-3.45,0-5.17,0-4.15,0-8.3,0-12.45a3.78,3.78,0,0,0-4.22-3.8,3.74,3.74,0,0,0-3.36,3.74C51.05,70.49,51.06,73.79,51.06,77.09Z" transform="translate(-13.84 -42.87)"/><path d="M90.73,73.89c.34-1,.64-2,.94-2.88s.6-2,1-2.94a3.43,3.43,0,0,1,5.73-1.24,3.35,3.35,0,0,1,.79,3.52c-1,3.11-2,6.22-3,9.33q-.87,2.71-1.75,5.41a3.44,3.44,0,0,1-4.94,2.11l-14-6.45a3.45,3.45,0,1,1,2.89-6.26c1.72.78,3.44,1.58,5.16,2.37l1.11.51c-.22-.64-.39-1.16-.6-1.68A31.25,31.25,0,0,0,69.79,59.57a29.69,29.69,0,0,0-11.41-3.66,30.67,30.67,0,0,0-22.21,6,31.3,31.3,0,0,0-8.7,40.31,31.29,31.29,0,0,0,30.89,15.95,30.2,30.2,0,0,0,10-2.86,3.47,3.47,0,0,1,4.72,4.5,3.3,3.3,0,0,1-1.61,1.68,37.38,37.38,0,0,1-11.75,3.47,38.63,38.63,0,0,1-9.67,0,37.61,37.61,0,0,1-12.91-4,38.19,38.19,0,0,1-14.56-13.36A37.13,37.13,0,0,1,17,92.63a38.06,38.06,0,0,1,1.9-18.71A37.35,37.35,0,0,1,33.58,55.24,37.87,37.87,0,0,1,49.65,49.1a36.93,36.93,0,0,1,19,2.28A37.89,37.89,0,0,1,89,70c.56,1.11,1,2.28,1.5,3.43C90.58,73.53,90.63,73.66,90.73,73.89Z" transform="translate(-13.84 -42.87)"/><path d="M51.06,77.09c0-3.3,0-6.6,0-9.91a3.74,3.74,0,0,1,3.36-3.74,3.78,3.78,0,0,1,4.22,3.8c0,4.15,0,8.3,0,12.45,0,1.72,0,3.45,0,5.17a1,1,0,0,0,.34.82L65.74,92a3.8,3.8,0,1,1-5,5.71q-4.27-3.94-8.51-7.93a3.7,3.7,0,0,1-1.18-2.82c0-3.28,0-6.55,0-9.83Z" transform="translate(-13.84 -42.87)"/></svg>