<svg id="Ebene_1" data-name="Ebene 1" xmlns="http://www.w3.org/2000/svg" viewBox="0 0 79.68 98.3"><defs><style>.cls-1{fill:#fff;}</style></defs><title>modebewusste Kunden</title><path class="cls-1" d="M81.21,40.23H98.53v98.3H18.84V96.58a34.52,34.52,0,0,0,4.58,12c.36.6.77,1.16,1.16,1.74l.22-.12a2.24,2.24,0,0,0-.14-.46c-.57-1.27-1.19-2.51-1.72-3.79A28.13,28.13,0,0,1,20.6,92.52a18.75,18.75,0,0,1,2.31-7.63,27,27,0,0,1,9.92-9.76,62.21,62.21,0,0,1,17.59-6.87c4.08-1,8.19-1.83,12.29-2.74l.82-.19a.67.67,0,0,1-.28.36,89.72,89.72,0,0,1-11.68,6.63,37,37,0,0,0-8.44,5.51c-3.51,3.12-6.49,6.63-8,11.19a28.06,28.06,0,0,0-1,14.28,44.19,44.19,0,0,0,6.6,16A14.29,14.29,0,0,1,42.81,124c.07.3.18.6.27.9l.3,0a13.93,13.93,0,0,0,.08-1.82,13.25,13.25,0,0,0-1.65-5.44,43.44,43.44,0,0,1-5.23-13.32,38.77,38.77,0,0,1-.69-7,21.44,21.44,0,0,1,1.44-7.41A26.49,26.49,0,0,1,41.18,83a24.94,24.94,0,0,1,6.89-6.14c2.85-1.73,5.8-3.29,8.7-4.94,1.69-1,3.36-1.94,5-2.9h0c.53.16,1.07.29,1.58.48s1-.29,1.58.13c.32.22,1-.12,1.54-.2.06.17.13.53.21.54.69,0,1.49.36,1.86-.61l-.13,1.41.28.06.68-1.29.1,0-.1,1.33.23.08,1-1.33.57,1.11.22-.07V69.18l1-.14c-.35-.58-.66-1.12-1-1.63-.45-.68-1-1.34-1.89-1.23a11.62,11.62,0,0,0-4.36.84,2.42,2.42,0,0,1-.66.09c1.27-1,2.37-2,3.53-2.8a1.34,1.34,0,0,1,1.06,0c1.08.39,2.12.85,3.18,1.29.26.11.5.32.75.33a3,3,0,0,0,.84-.27,2.59,2.59,0,0,0-.32-.69,3.6,3.6,0,0,0-.92-.68c-.92-.47-1.85-.9-2.85-1.37l.56-.33a22,22,0,0,0,9.06-8.07A17.39,17.39,0,0,0,81.21,40.23Zm-22.43,93.5.15-.28c-.21-.16-.42-.32-.64-.47a25.35,25.35,0,0,1-7.54-7.08,10.63,10.63,0,0,1-2-8.07A23.46,23.46,0,0,1,53.29,108,30,30,0,0,1,69.34,97.18a15.25,15.25,0,0,0,10.25-9.43,68.38,68.38,0,0,0,3.67-11.61c.35-1.6.65-3.22,1-4.77l1.39.45.22-.25c-1.82-.77-1.89-2.06-1.52-3.71.44-2-.59-2.91-2.81-2.79a4.77,4.77,0,0,0-.92.15,9.47,9.47,0,0,0-1.48.48c-.17.07-.25.36-.37.56a2.78,2.78,0,0,0,.67.33,2.56,2.56,0,0,0,.7-.14,14.46,14.46,0,0,1,1.94-.3c2.2-.09,2.2-.07,1.64,2,0,0-.09.08-.17.16a2,2,0,0,0-2.17-.92c-1.48.42-3.08.65-4.3,1.89l1.15.63-.61,1.53.23.11L79,70.35,79.22,72l.18,0L80,70.48l.22.08.11,1.63h.28l.44-1.66c.12.14.2.18.21.24.18.66.18.65.83.6.1,0,.2.15.32.2a5.33,5.33,0,0,1,.6.23c.17.09.39.26.4.4a3.2,3.2,0,0,1-.13.92,37.81,37.81,0,0,1-3.19,8.24c-.8,1.62-1.73,3.19-2.41,4.85-.6,1.46-.94,3-1.4,4.56a2.44,2.44,0,0,1-3,1.65,12.73,12.73,0,0,1-2-.62c-2.28-1-4.56-2-6.81-3.11S60,86.38,57.68,85.23c-.6-.31-1.21-.6-1.82-.9l-.23.29a1,1,0,0,1,.39.12c1.45.94,2.89,1.91,4.35,2.85a9.81,9.81,0,0,1,3,3,.75.75,0,0,1-.08.66,2,2,0,0,1-.59.42A37.08,37.08,0,0,0,49,108.14a22.12,22.12,0,0,0-1.76,11.51c.75,5.88,4,10.08,9.17,12.88C57.19,133,58,133.33,58.78,133.73Zm9-9.09a2.54,2.54,0,0,0,.41.16,4.46,4.46,0,0,0,.63,0,29.94,29.94,0,0,0,18.26-5.64,23.71,23.71,0,0,0,5.37-5.35,31,31,0,0,0,5.63-15.81,102,102,0,0,0,0-10.92,59,59,0,0,0-1.78-11.5A146.69,146.69,0,0,0,84.49,43.56a7.23,7.23,0,0,0-.41-.61l-.22.1.41,1.14c1.3,3.48,2.64,6.94,3.89,10.44,1.17,3.31,2.38,6.61,3.31,10,2.21,8,4.17,16.13,4.6,24.51a49.68,49.68,0,0,1-1.07,14,27.09,27.09,0,0,1-5.78,11.75,27.61,27.61,0,0,1-15.28,8.77C72,124.06,70,124.28,67.82,124.64Zm4.51,9.62.16-.26c-.31-.2-.61-.43-.93-.6a23.39,23.39,0,0,1-6.87-5.35,12.8,12.8,0,0,1-3.46-7.64,13.23,13.23,0,0,1,4.67-11.22,92.16,92.16,0,0,1,11.36-8.09,26.42,26.42,0,0,0,8-7.4c3-4.55,4.14-9.65,4.38-15a47.57,47.57,0,0,0-1.11-11.9c-.21-1-.49-2-.73-3l-.25.05a2,2,0,0,0,0,.49,60.64,60.64,0,0,1,.78,12A33.34,33.34,0,0,1,86.32,87a20.67,20.67,0,0,1-7.5,10.28c-1.77,1.23-3.61,2.35-5.39,3.56A68.72,68.72,0,0,0,64.11,108,14.49,14.49,0,0,0,62,126.19c2.19,3.38,5.39,5.54,8.86,7.38C71.32,133.82,71.83,134,72.33,134.26ZM91.5,83.41l-.3,0c0,.13,0,.26-.06.39-.23,2.14-.34,4.29-.69,6.41a41,41,0,0,1-5.35,15.12A47.62,47.62,0,0,1,78.49,114a28.52,28.52,0,0,1-6.12,4.47c-.86.49-1.7,1-2.55,1.5l.11.25c.67-.22,1.34-.43,2-.66a23.87,23.87,0,0,0,8-4.49,38.34,38.34,0,0,0,7.24-9,34.41,34.41,0,0,0,4.66-19.37C91.83,85.65,91.63,84.53,91.5,83.41ZM55.94,124.66l.18-.2c-.14-.19-.27-.39-.41-.57a10.44,10.44,0,0,1-2.35-7.17A14.42,14.42,0,0,1,56.82,108a22.3,22.3,0,0,1,6.57-5.22c3.53-1.93,7.13-3.73,10.7-5.59,1-.54,2-1.1,3.08-1.65L77,95.2l-1.77.65a84.91,84.91,0,0,0-14.1,6.42,21.92,21.92,0,0,0-5.7,5,14.31,14.31,0,0,0-3.06,8.17A11.87,11.87,0,0,0,55,123.87,6.79,6.79,0,0,0,55.94,124.66Zm18.15-39a4.09,4.09,0,0,0,1.41-.59A26.18,26.18,0,0,0,77.36,83a2.23,2.23,0,0,0,.24-2.7,1.09,1.09,0,0,0-1.77-.53,1,1,0,0,1-1.39-.1,1.7,1.7,0,0,0-2.12-.13,8.44,8.44,0,0,1-3.65,1.39.55.55,0,0,0-.43.35c0,.13.15.34.29.47A13.77,13.77,0,0,1,70.89,84C71.65,85.18,72.71,85.4,74.09,85.65ZM82,52.79h-.26L79.48,64.4l.28.13c2.73-1.6,4.11-4.21,4.94-7.15,1-3.55.4-10.15-.81-11.34,0,2.34.08,4.79,0,7.23-.12,2.92-1.08,5.71-2.1,6.76A38.8,38.8,0,0,0,82,52.79Zm-5.83,23a2,2,0,0,0-2.37-.38c-.21.13-.31.45-.47.69ZM78,75.9l-.25-.31c-.6.4-1.21.78-1.8,1.19-.1.07-.1.28-.15.43.16,0,.37.12.46.05C76.86,76.83,77.43,76.36,78,75.9Z" transform="translate(-18.84 -40.23)"/><path class="cls-1" d="M18.84,90.32V40.23H73.91a4.68,4.68,0,0,0,.52.64A7.83,7.83,0,0,1,77,46.93a13.6,13.6,0,0,1-2.25,7.38c-1.85,2.91-3.61,6-7.25,7.08-2.72.81-5.42,1.77-8.2,2.31a128.36,128.36,0,0,0-15.7,3.61A49.76,49.76,0,0,0,28.72,74.7a26.61,26.61,0,0,0-7.81,9.09A24.36,24.36,0,0,0,18.84,90.32Zm29-26.59.06.23a2.62,2.62,0,0,0,.56,0c2.61-.54,5.25-1,7.83-1.67a27.56,27.56,0,0,0,9.38-4.09c4-2.89,5.58-6.87,5.56-11.63,0-1-.18-2-.28-3l-.4,0c0,.88,0,1.76,0,2.64A15.48,15.48,0,0,1,68.69,53,14.43,14.43,0,0,1,62,58.87a80.77,80.77,0,0,1-13,4.47C48.61,63.45,48.21,63.6,47.81,63.73Z" transform="translate(-18.84 -40.23)"/><path d="M18.84,90.32a24.36,24.36,0,0,1,2.07-6.53,26.61,26.61,0,0,1,7.81-9.09,49.76,49.76,0,0,1,14.85-7.39,128.36,128.36,0,0,1,15.7-3.61c2.78-.54,5.48-1.5,8.2-2.31,3.64-1.09,5.4-4.17,7.25-7.08A13.6,13.6,0,0,0,77,46.93a7.83,7.83,0,0,0-2.54-6.06,4.68,4.68,0,0,1-.52-.64h.42A8,8,0,0,1,77.67,46a12.37,12.37,0,0,1-.78,6.45c-.71,1.64-1.53,3.24-2.3,4.87a3.45,3.45,0,0,0,.37-.25A16.81,16.81,0,0,0,81.15,44.7c.07-1.49-.09-3-.14-4.47h.2A17.39,17.39,0,0,1,79.4,54.47a22,22,0,0,1-9.06,8.07l-.56.33c1,.47,1.93.9,2.85,1.37a3.6,3.6,0,0,1,.92.68,2.59,2.59,0,0,1,.32.69,3,3,0,0,1-.84.27c-.25,0-.49-.22-.75-.33-1.06-.44-2.1-.9-3.18-1.29a1.34,1.34,0,0,0-1.06,0c-1.16.85-2.26,1.79-3.53,2.8a2.42,2.42,0,0,0,.66-.09,11.62,11.62,0,0,1,4.36-.84c.94-.11,1.44.55,1.89,1.23.34.51.65,1,1,1.63l-1,.14V70.7l-.22.07-.57-1.11-1,1.33-.23-.08.1-1.33-.1,0-.68,1.29-.28-.06.13-1.41c-.37,1-1.17.65-1.86.61-.08,0-.15-.37-.21-.54-.5.08-1.22.42-1.54.2-.58-.42-1.07.06-1.58-.13s-1-.32-1.58-.48l2.8-1-.08-.35c-.31,0-.68-.07-.9.07-.64.39-1.21.88-1.81,1.33-1.69,1-3.36,1.94-5,2.9-2.9,1.65-5.85,3.21-8.7,4.94A24.94,24.94,0,0,0,41.18,83a26.49,26.49,0,0,0-3.85,6.85,21.44,21.44,0,0,0-1.44,7.41,38.77,38.77,0,0,0,.69,7,43.44,43.44,0,0,0,5.23,13.32,13.25,13.25,0,0,1,1.65,5.44,13.93,13.93,0,0,1-.08,1.82l-.3,0c-.09-.3-.2-.6-.27-.9a14.29,14.29,0,0,0-2.07-4.75,44.19,44.19,0,0,1-6.6-16,28.06,28.06,0,0,1,1-14.28c1.53-4.56,4.51-8.07,8-11.19a37,37,0,0,1,8.44-5.51,89.72,89.72,0,0,0,11.68-6.63.67.67,0,0,0,.28-.36l-.82.19c-4.1.91-8.21,1.75-12.29,2.74a62.21,62.21,0,0,0-17.59,6.87,27,27,0,0,0-9.92,9.76,18.75,18.75,0,0,0-2.31,7.63,28.13,28.13,0,0,0,2.34,13.42c.53,1.28,1.15,2.52,1.72,3.79a2.24,2.24,0,0,1,.14.46l-.22.12c-.39-.58-.8-1.14-1.16-1.74a34.52,34.52,0,0,1-4.58-12Z" transform="translate(-18.84 -40.23)"/><path class="cls-1" d="M81,40.23c0,1.49.21,3,.14,4.47A16.81,16.81,0,0,1,75,57.09a3.45,3.45,0,0,1-.37.25c.77-1.63,1.59-3.23,2.3-4.87A12.37,12.37,0,0,0,77.67,46a8,8,0,0,0-3.34-5.79Z" transform="translate(-18.84 -40.23)"/><path d="M58.78,133.73c-.79-.4-1.59-.78-2.37-1.2-5.15-2.8-8.42-7-9.17-12.88A22.12,22.12,0,0,1,49,108.14,37.08,37.08,0,0,1,62.73,91.62a2,2,0,0,0,.59-.42.75.75,0,0,0,.08-.66,9.81,9.81,0,0,0-3-3c-1.46-.94-2.9-1.91-4.35-2.85a1,1,0,0,0-.39-.12l.23-.29c.61.3,1.22.59,1.82.9,2.29,1.15,4.56,2.36,6.87,3.47s4.53,2.1,6.81,3.11a12.73,12.73,0,0,0,2,.62,2.44,2.44,0,0,0,3-1.65c.46-1.52.8-3.1,1.4-4.56.68-1.66,1.61-3.23,2.41-4.85a37.81,37.81,0,0,0,3.19-8.24,3.2,3.2,0,0,0,.13-.92c0-.14-.23-.31-.4-.4a5.33,5.33,0,0,0-.6-.23c-.12,0-.22-.21-.32-.2-.65.05-.65.06-.83-.6,0-.06-.09-.1-.21-.24l-.44,1.66h-.28l-.11-1.63L80,70.48l-.63,1.46-.18,0L79,70.35l-1.14,1.21-.23-.11.61-1.53L77,69.29c1.22-1.24,2.82-1.47,4.3-1.89a2,2,0,0,1,2.17.92c.08-.08.16-.12.17-.16.56-2.08.56-2.1-1.64-2a14.46,14.46,0,0,0-1.94.3,2.56,2.56,0,0,1-.7.14,2.78,2.78,0,0,1-.67-.33c.12-.2.2-.49.37-.56a9.47,9.47,0,0,1,1.48-.48,4.77,4.77,0,0,1,.92-.15c2.22-.12,3.25.8,2.81,2.79-.37,1.65-.3,2.94,1.52,3.71l-.22.25-1.39-.45c-.31,1.55-.61,3.17-1,4.77a68.38,68.38,0,0,1-3.67,11.61,15.25,15.25,0,0,1-10.25,9.43A30,30,0,0,0,53.29,108a23.46,23.46,0,0,0-4.58,9.82,10.63,10.63,0,0,0,2,8.07A25.35,25.35,0,0,0,58.29,133c.22.15.43.31.64.47Z" transform="translate(-18.84 -40.23)"/><path d="M67.82,124.64c2.16-.36,4.17-.58,6.12-1a27.61,27.61,0,0,0,15.28-8.77A27.09,27.09,0,0,0,95,103.1a49.68,49.68,0,0,0,1.07-14c-.43-8.38-2.39-16.48-4.6-24.51-.93-3.38-2.14-6.68-3.31-10-1.25-3.5-2.59-7-3.89-10.44l-.41-1.14.22-.1a7.23,7.23,0,0,1,.41.61A146.69,146.69,0,0,1,96.38,75.63a59,59,0,0,1,1.78,11.5,102,102,0,0,1,0,10.92,31,31,0,0,1-5.63,15.81,23.71,23.71,0,0,1-5.37,5.35,29.94,29.94,0,0,1-18.26,5.64,4.46,4.46,0,0,1-.63,0A2.54,2.54,0,0,1,67.82,124.64Z" transform="translate(-18.84 -40.23)"/><path d="M72.33,134.26c-.5-.23-1-.44-1.49-.69-3.47-1.84-6.67-4-8.86-7.38A14.49,14.49,0,0,1,64.11,108a68.72,68.72,0,0,1,9.32-7.17c1.78-1.21,3.62-2.33,5.39-3.56A20.67,20.67,0,0,0,86.32,87a33.34,33.34,0,0,0,1.94-10.61,60.64,60.64,0,0,0-.78-12,2,2,0,0,1,0-.49l.25-.05c.24,1,.52,2,.73,3A47.57,47.57,0,0,1,89.6,78.7c-.24,5.35-1.37,10.45-4.38,15a26.42,26.42,0,0,1-8,7.4,92.16,92.16,0,0,0-11.36,8.09,13.23,13.23,0,0,0-4.67,11.22,12.8,12.8,0,0,0,3.46,7.64,23.39,23.39,0,0,0,6.87,5.35c.32.17.62.4.93.6Z" transform="translate(-18.84 -40.23)"/><path d="M91.5,83.41c.13,1.12.33,2.24.37,3.36a34.41,34.41,0,0,1-4.66,19.37,38.34,38.34,0,0,1-7.24,9,23.87,23.87,0,0,1-8,4.49c-.66.23-1.33.44-2,.66l-.11-.25c.85-.5,1.69-1,2.55-1.5A28.52,28.52,0,0,0,78.49,114a47.62,47.62,0,0,0,6.61-8.68,41,41,0,0,0,5.35-15.12c.35-2.12.46-4.27.69-6.41,0-.13,0-.26.06-.39Z" transform="translate(-18.84 -40.23)"/><path d="M55.94,124.66a6.79,6.79,0,0,1-.9-.79,11.87,11.87,0,0,1-2.63-8.45,14.31,14.31,0,0,1,3.06-8.17,21.92,21.92,0,0,1,5.7-5,84.91,84.91,0,0,1,14.1-6.42L77,95.2l.13.3c-1,.55-2,1.11-3.08,1.65-3.57,1.86-7.17,3.66-10.7,5.59A22.3,22.3,0,0,0,56.82,108a14.42,14.42,0,0,0-3.46,8.76,10.44,10.44,0,0,0,2.35,7.17c.14.18.27.38.41.57Z" transform="translate(-18.84 -40.23)"/><path d="M74.09,85.65c-1.38-.25-2.44-.47-3.2-1.63a13.77,13.77,0,0,0-2.36-2.27c-.14-.13-.32-.34-.29-.47a.55.55,0,0,1,.43-.35,8.44,8.44,0,0,0,3.65-1.39,1.7,1.7,0,0,1,2.12.13,1,1,0,0,0,1.39.1,1.09,1.09,0,0,1,1.77.53,2.23,2.23,0,0,1-.24,2.7,26.18,26.18,0,0,1-1.86,2.06A4.09,4.09,0,0,1,74.09,85.65Z" transform="translate(-18.84 -40.23)"/><path d="M82,52.79A38.8,38.8,0,0,1,81.77,60c1-1.05,2-3.84,2.1-6.76.1-2.44,0-4.89,0-7.23,1.21,1.19,1.82,7.79.81,11.34-.83,2.94-2.21,5.55-4.94,7.15l-.28-.13,2.27-11.62Z" transform="translate(-18.84 -40.23)"/><path d="M76.18,75.77l-2.84.31c.16-.24.26-.56.47-.69A2,2,0,0,1,76.18,75.77Z" transform="translate(-18.84 -40.23)"/><path d="M78,75.9c-.57.46-1.14.93-1.74,1.36-.09.07-.3,0-.46-.05,0-.15,0-.36.15-.43.59-.41,1.2-.79,1.8-1.19Z" transform="translate(-18.84 -40.23)"/><path d="M47.81,63.73c.4-.13.8-.28,1.2-.39a80.77,80.77,0,0,0,13-4.47A14.43,14.43,0,0,0,68.69,53a15.48,15.48,0,0,0,1.82-6.77c0-.88,0-1.76,0-2.64l.4,0c.1,1,.28,2,.28,3,0,4.76-1.61,8.74-5.56,11.63a27.56,27.56,0,0,1-9.38,4.09C53.68,63,51,63.42,48.43,64a2.62,2.62,0,0,1-.56,0Z" transform="translate(-18.84 -40.23)"/><path class="cls-1" d="M61.82,69c.6-.45,1.17-.94,1.81-1.33.22-.14.59-.06.9-.07l.08.35-2.8,1Z" transform="translate(-18.84 -40.23)"/></svg>