<svg id="Ebene_1" data-name="Ebene 1" xmlns="http://www.w3.org/2000/svg" viewBox="0 0 66.36 59.12"><title>Professioneller Arbeitsvertrag</title><path d="M72.61,91.1c0,.47.12.76.12,1.05q0,9.63,0,19.25c0,1.51-.34,1.85-1.86,1.85H28.43c-1.49,0-1.84-.34-1.84-1.86q0-9.61,0-19.24c0-3.27,0-6.54,0-9.81q0-13,0-26c0-1.9.26-2.15,2.1-2.15,9.1,0,18.2,0,27.29,0a3,3,0,0,1,2.3.91Q65,61.82,71.77,68.55a3,3,0,0,1,1,2.41,30.37,30.37,0,0,0,0,4.77c.22,2-.69,3.16-2.37,4.23,0-.54-.1-1-.1-1.4,0-2,0-3.91,0-5.86,0-1.52,0-1.52-1.47-1.53H58c-2.2,0-2.36-.15-2.36-2.29,0-3.73,0-7.46,0-11.19,0-1.19,0-1.2-1.21-1.21H30.32c-1.3,0-1.3,0-1.31,1.38v51c0,.36,0,.73,0,1.09-.07.72.26,1,1,.92.36,0,.72,0,1.09,0H68a7.93,7.93,0,0,1,1.09,0c.89.1,1.26-.27,1.17-1.16,0-.36,0-.73,0-1.09,0-4.55.11-9.1,0-13.64C70.18,93.1,71.21,92.18,72.61,91.1ZM68.23,68.75l.1-.3C64.94,65.13,61.66,61.71,58,58.2c0,3.47,0,6.55,0,9.63,0,.62.19.93.85.92C62,68.74,65.1,68.75,68.23,68.75Z" transform="translate(-26.56 -54.13)"/><path d="M87.15,74.32c-6.65,6.5-13.29,13-19.77,19.36l-4.31-4.12c.83-.76,1.68-1.5,2.49-2.28q3.16-3,6.28-6.07Q79.23,74,86.61,66.65l1.17-1.14a3,3,0,0,1,4.75.4c.55.72.55,2.65-.18,3.24a6.52,6.52,0,0,0-2.64,5.31,6.82,6.82,0,0,1-2.36,4.64c-2.7,2.69-5.43,5.36-8.16,8a3.58,3.58,0,0,1-.51.44,1.15,1.15,0,0,1-1.59-.27,1,1,0,0,1,.08-1.46c.56-.59,1.13-1.18,1.72-1.75q3.21-3.16,6.44-6.3A5.44,5.44,0,0,0,87.15,74.32Z" transform="translate(-26.56 -54.13)"/><path d="M48.8,76.6H35.7a2.9,2.9,0,0,1-1.33-.13,1.6,1.6,0,0,1-.8-1.08c0-.37.44-.82.8-1.08s.7-.13,1.06-.13H62.16c1.14,0,1.78.52,1.74,1.29s-.65,1.14-1.74,1.14Z" transform="translate(-26.56 -54.13)"/><path d="M37,97c.09,1.27.12,2.54.29,3.8s.46,1.31,1.51.77,1.88-1.12,2.87-1.55c3.93-1.7,7.55-.8,11,1.36a1.16,1.16,0,0,1,.53,1.63c-.3.64-1,.76-1.76.38s-1.52-.82-2.31-1.15a8.05,8.05,0,0,0-7.59.48c-.78.46-1.56,1-2.38,1.33a2.61,2.61,0,0,1-3.74-1.36,6.79,6.79,0,0,1-.67-2.47c-.05-1.77.08-3.54.15-5.31,0-.8.44-1.34,1.27-1.28s1.11.67,1.07,1.46c0,.63-.08,1.27-.11,1.9Z" transform="translate(-26.56 -54.13)"/><path d="M46,79.58h9.67a5.39,5.39,0,0,1,1.76.11,1.76,1.76,0,0,1,1,1.08c.12.63-.33,1.09-1,1.14s-1.36.1-2,.1c-5.26,0-10.52,0-15.78,0-1.5,0-3,0-4.49,0-1,0-1.54-.44-1.56-1.15s.53-1.24,1.6-1.25c3.63,0,7.26,0,10.9,0Z" transform="translate(-26.56 -54.13)"/><path d="M61.45,91.44l4.43,4.23a6.39,6.39,0,0,0-1.25.7,31.23,31.23,0,0,1-8.53,5.77,7.39,7.39,0,0,1-1,.39c-.79.18-1.08-.15-.84-1a6.3,6.3,0,0,1,.39-1,32.49,32.49,0,0,1,6.57-9A.82.82,0,0,1,61.45,91.44Z" transform="translate(-26.56 -54.13)"/><path d="M43.52,71.17H34.93c-.78,0-1.36-.32-1.4-1.16s.55-1.2,1.32-1.23c1.22,0,2.45-.06,3.67-.06l13,0a2.49,2.49,0,0,1,1.2.12c.38.23.88.72.85,1a2.11,2.11,0,0,1-.9,1.17c-.25.18-.71.08-1.07.08Z" transform="translate(-26.56 -54.13)"/><path d="M40.45,65.75h-4.9a6,6,0,0,1-.95,0,1.12,1.12,0,0,1-1.08-1.18,1.06,1.06,0,0,1,1.12-1.12c1.27,0,2.54-.05,3.81-.05l7.07,0h.54c.75,0,1.24.42,1.22,1.17A1.13,1.13,0,0,1,46,65.73c-1.86,0-3.72,0-5.58,0Z" transform="translate(-26.56 -54.13)"/><path d="M40.39,87.36c-1.77,0-3.53,0-5.3,0-1.11,0-1.63-.43-1.58-1.21S34.07,85,35.08,85c3.49,0,7,0,10.46,0,1.07,0,1.61.46,1.58,1.25s-.54,1.1-1.57,1.1Z" transform="translate(-26.56 -54.13)"/></svg>