<svg id="Ebene_1" data-name="Ebene 1" xmlns="http://www.w3.org/2000/svg" viewBox="0 0 75.78 65.17"><title>pünktliche Gehaltszahlung</title><path d="M41.61,87.67A18.6,18.6,0,1,1,60.22,69.3a18.43,18.43,0,0,1-1.52,7.13h4.44a22.74,22.74,0,0,0-22-30.09A22.74,22.74,0,0,0,18.92,70.26,22.74,22.74,0,0,0,51.45,89.58V84.83A18.32,18.32,0,0,1,41.61,87.67Z" transform="translate(-18.89 -46.34)"/><path d="M41.61,73.47a2.39,2.39,0,0,1-2.34-2,1.27,1.27,0,0,0-.19-.45c-.48-.67-1-1.33-1.46-2l-1.89-2.59-2.22-3.06-1.49-2-.09-.14,0-.14A.4.4,0,0,1,32,61l.76.64L35.44,64l3.16,2.75,2.15,1.88a.4.4,0,0,0,.39.1,2.33,2.33,0,0,1,1.45.16.38.38,0,0,0,.42,0L48,66.07c.56-.31,1.12-.64,1.69-.95A1.44,1.44,0,0,1,50,65a1.6,1.6,0,0,1-.2.34l-3.06,3.23c-.89.92-1.77,1.85-2.65,2.78a.85.85,0,0,0-.13.31A2.44,2.44,0,0,1,41.61,73.47Z" transform="translate(-18.89 -46.34)"/><path d="M73.12,86.42c3.71,0,7.43,0,11.15,0,1.45,0,1.47,0,1.47,1.51q0,9.73,0,19.47c0,2.89-1.29,4.1-4.23,4.1q-8.4,0-16.81,0c-3,0-4.23-1.25-4.24-4.25q0-9.57,0-19.14c0-1.65,0-1.68,1.67-1.69C65.79,86.41,69.45,86.42,73.12,86.42Z" transform="translate(-18.89 -46.34)"/><path d="M54.65,93.65c1.24,0,2.24.06,3.22,0,1.2-.09,1.2.64,1.2,1.48s0,1.44-1.12,1.39-2.45,0-3.66,0A2.42,2.42,0,0,1,51.83,94c-.06-4.94,0-9.88,0-14.83a2.47,2.47,0,0,1,2.28-2.45,9.37,9.37,0,0,1,1.5-.05H90.93c2.92,0,3.73.82,3.74,3.77,0,4.22,0,8.44,0,12.66,0,2.43-.89,3.34-3.28,3.36-1,0-2.11,0-3.16,0s-1.1-.65-1.08-1.41-.15-1.51,1-1.45c.89,0,1.78,0,2.67,0,.71,0,1-.32,1-1,0-4,0-8.11,0-12.16,0-.28-.44-.64-.75-.8a2.5,2.5,0,0,0-1,0H56.87l-1.33,0a.79.79,0,0,0-.89.93C54.66,84.87,54.65,89.13,54.65,93.65Z" transform="translate(-18.89 -46.34)"/><path d="M59.05,85.15v4.4c0,.69,0,1.34-1,1.34s-1.68-.14-1.67-1.3c0-2,0-4.11,0-6.16,0-.85.47-1.19,1.23-1.25.44,0,.89,0,1.33,0H87.15l1.33,0c.85,0,1.39.43,1.4,1.31,0,2,0,4.11,0,6.16,0,1.16-.84,1.24-1.75,1.26s-1-.62-1-1.33c0-.88,0-1.77,0-2.66,0-1.75,0-1.76-1.68-1.76-2.89,0-5.78,0-8.67,0H59.05Z" transform="translate(-18.89 -46.34)"/></svg>