<svg id="Ebene_1" data-name="Ebene 1" xmlns="http://www.w3.org/2000/svg" viewBox="0 0 84.55 63.41"><defs><style>.cls-1{fill:#fff;}</style></defs><title>Seminare und Trainings</title><path class="cls-1" d="M10.81,51.13H95.37v63.41H10.81ZM57.14,86.74V110c0,.82.1.91.91.91s.85-.09.85-1V83.83a10.32,10.32,0,0,0,1.38,0,1,1,0,0,0,.69-.38,1.17,1.17,0,0,0-1.12-1.84H26.35c-.15,0-.31,0-.46,0a.65.65,0,0,0-.7.7c0,.22,0,.44,0,.66,0,.61.24.9.86.88s1.13,0,1.76,0V110c0,.85.08.94.87.94s.89-.08.89-.92V86.74Zm5.1-15.83.14.11c.25-.36.51-.71.74-1.07a3.1,3.1,0,1,1,5.26,3.24,16.37,16.37,0,0,1-3.68,4.19.81.81,0,0,0-.3,1,15.6,15.6,0,0,1,0,7.44.63.63,0,0,1-.69.58c-1.47.09-2.93.24-4.41.37v6.89h.48c2.24,0,4.48-.12,6.72-.14a11.51,11.51,0,0,1,2.42.18,6.08,6.08,0,0,0,7.28-5.74,27.94,27.94,0,0,0-1.19-9,22.63,22.63,0,0,0-5.83-9.8,4.23,4.23,0,0,0-7,1.84ZM54.06,61a7.26,7.26,0,0,0,14.52,0,7.26,7.26,0,1,0-14.52,0ZM51.62,75.59c.11-.25.18-.45.28-.64.59-1.17,1.18-2.35,1.78-3.52.16-.34.4-.72-.09-1s-.64.21-.81.53c-.67,1.31-1.33,2.62-2,3.94a.67.67,0,0,1-.74.46,2.73,2.73,0,0,0-.52,5.42,18.45,18.45,0,0,0,6.75.11,17.15,17.15,0,0,0,11.85-8,2.7,2.7,0,0,0-.87-3.85,2.74,2.74,0,0,0-3.82,1,12.07,12.07,0,0,1-3.61,3.68A11.89,11.89,0,0,1,51.62,75.59Zm5.13,11.68a5.37,5.37,0,0,0-5.06,4.37,14.49,14.49,0,0,0-.34,2.54,81.12,81.12,0,0,0,.78,13.39A2.85,2.85,0,0,0,56,109.75a1,1,0,0,0,.77-1.1c0-6.9,0-13.79,0-20.69Zm5.09,8.17c0,.09.07.11.07.13,0,2.15.09,4.31,0,6.46s.37,4.24-.29,6.35a7.08,7.08,0,0,0,0,2.16c0,.1.07.28.12.28a6.22,6.22,0,0,0,1.43,0c.13,0,.21-.5.24-.78a21.81,21.81,0,0,0-.3-2.71c-.11-3.75,0-7.51,0-11.27v-.6H77a1.48,1.48,0,0,1,0,.24c0,2.13.08,4.27,0,6.39s.41,4.25-.31,6.34a4.94,4.94,0,0,0,0,1.44c0,1.17-.06,1,1,1,.56,0,.79-.12.75-.73,0-1-.24-1.92-.28-2.85-.14-3.75-.06-7.51-.06-11.27,0-.19,0-.38,0-.57.5-.18,1.21.17,1.36-.65s-.35-.9-.88-1.06V87.34c0-.47-.11-1,.43-1.28.12-.07.14-.4.14-.61V75.76c0-.72-.24-.91-1.05-.92s-1.14.2-1.14.89q0,4.89,0,9.76a2.38,2.38,0,0,0,.26.7,2.32,2.32,0,0,1,.29.73c0,2.11,0,4.22,0,6.33,0,.19,0,.38,0,.63H61.85a3.9,3.9,0,0,0-.59,0,.66.66,0,0,0-.65.75.67.67,0,0,0,.64.77C61.44,95.43,61.64,95.43,61.84,95.44ZM35.9,79.35v1.19H48a2.76,2.76,0,0,1-.48-.56c-.24-.61-.69-.65-1.26-.65-2.37,0-4.74,0-7.11,0Z" transform="translate(-10.81 -51.13)"/><path d="M57.14,86.74H29.57V110c0,.84-.09.92-.89.92s-.87-.09-.87-.94V83.83c-.63,0-1.2,0-1.76,0s-.9-.27-.86-.88c0-.22,0-.44,0-.66a.65.65,0,0,1,.7-.7c.15,0,.31,0,.46,0h33.5A1.17,1.17,0,0,1,61,83.43a1,1,0,0,1-.69.38,10.32,10.32,0,0,1-1.38,0V110c0,.86-.08,1-.85,1s-.91-.09-.91-.91V86.74Z" transform="translate(-10.81 -51.13)"/><path d="M62.24,70.91a4.23,4.23,0,0,1,7-1.84A22.63,22.63,0,0,1,75,78.87a27.94,27.94,0,0,1,1.19,9A6.08,6.08,0,0,1,69,93.65a11.51,11.51,0,0,0-2.42-.18c-2.24,0-4.48.09-6.72.14h-.48V86.72c1.48-.13,2.94-.28,4.41-.37a.63.63,0,0,0,.69-.58,15.6,15.6,0,0,0,0-7.44.81.81,0,0,1,.3-1,16.37,16.37,0,0,0,3.68-4.19A3.1,3.1,0,1,0,63.12,70c-.23.36-.49.71-.74,1.07Z" transform="translate(-10.81 -51.13)"/><path d="M54.06,61a7.26,7.26,0,1,1,7.22,7.25A7.24,7.24,0,0,1,54.06,61Z" transform="translate(-10.81 -51.13)"/><path d="M51.62,75.59a11.89,11.89,0,0,0,8.22-1.83,12.07,12.07,0,0,0,3.61-3.68,2.74,2.74,0,0,1,3.82-1,2.7,2.7,0,0,1,.87,3.85,17.15,17.15,0,0,1-11.85,8,18.45,18.45,0,0,1-6.75-.11,2.73,2.73,0,0,1,.52-5.42.67.67,0,0,0,.74-.46c.65-1.32,1.31-2.63,2-3.94.17-.32.32-.77.81-.53s.25.62.09,1c-.6,1.17-1.19,2.35-1.78,3.52C51.8,75.14,51.73,75.34,51.62,75.59Z" transform="translate(-10.81 -51.13)"/><path d="M56.75,87.27V88c0,6.9,0,13.79,0,20.69a1,1,0,0,1-.77,1.1,2.85,2.85,0,0,1-3.86-2.18,81.12,81.12,0,0,1-.78-13.39,14.49,14.49,0,0,1,.34-2.54A5.37,5.37,0,0,1,56.75,87.27Z" transform="translate(-10.81 -51.13)"/><path d="M61.84,95.44c-.2,0-.4,0-.59,0a.67.67,0,0,1-.64-.77.66.66,0,0,1,.65-.75,3.9,3.9,0,0,1,.59,0H77.58c0-.25,0-.44,0-.63,0-2.11,0-4.22,0-6.33a2.32,2.32,0,0,0-.29-.73,2.38,2.38,0,0,1-.26-.7q0-4.87,0-9.76c0-.69.28-.9,1.14-.89s1.05.2,1.05.92v9.69c0,.21,0,.54-.14.61-.54.32-.43.81-.43,1.28v6.43c.53.16,1,.36.88,1.06s-.86.47-1.36.65c0,.19,0,.38,0,.57,0,3.76-.08,7.52.06,11.27,0,.93.23,1.89.28,2.85,0,.61-.19.76-.75.73-1.1-.05-1,.15-1-1a4.94,4.94,0,0,1,0-1.44c.72-2.09.22-4.23.31-6.34s0-4.26,0-6.39a1.48,1.48,0,0,0,0-.24H63v.6c0,3.76-.06,7.52,0,11.27a21.81,21.81,0,0,1,.3,2.71c0,.28-.11.76-.24.78a6.22,6.22,0,0,1-1.43,0c-.05,0-.12-.18-.12-.28a7.08,7.08,0,0,1,0-2.16c.66-2.11.2-4.24.29-6.35s0-4.31,0-6.46C61.91,95.55,61.89,95.53,61.84,95.44Z" transform="translate(-10.81 -51.13)"/><path d="M35.9,79.35h3.25c2.37,0,4.74,0,7.11,0,.57,0,1,0,1.26.65a2.76,2.76,0,0,0,.48.56H35.9Z" transform="translate(-10.81 -51.13)"/></svg>