<svg id="Ebene_1" data-name="Ebene 1" xmlns="http://www.w3.org/2000/svg" viewBox="0 0 71.11 64.05"><title>Top Ambiente</title><path d="M69.22,95.61,71,95.45l.3,2.84h6V94.5H73l-8.51-8.56V57.31h29v54.54H69.22Zm8-29.75v-3.8h-6v3.8Zm11.14,0V62.07H82.35v3.76ZM77.35,70.08h-6v3.74h6ZM88.4,73.86V70.11h-6v3.75Zm-11.13,8V78.08h-6V81.9Zm11.19-3.78H82.35v3.71h6.11Zm-11.07,8.8H71.28v3.69h6.11Zm11.08,0H82.36v3.69h6.11Zm-6.1,7.59V98.3h6V94.51Zm-5,7.66h-6v3.75h6Zm11.08,0h-6v3.75h6Z" transform="translate(-22.4 -51.58)"/><path d="M38.07,90.6H30.8v5.09h7.72v2.89H30.77v5.13h7.72v3.52H24.83V66l-2.43-.59L35.76,51.58,50.14,65.49l-2.61.43V81.36Zm3-24.35H30.82v4.9H41.05Zm0,8.41H30.82v4.9H41.05Zm0,7.66H30.77v4.86H41.08Z" transform="translate(-22.4 -51.58)"/><path d="M57.61,115.63v-10.4H51v10.39H41.58V95.35L39.19,95l15-15.7,15,15.62L67,95.35v20.28ZM57,96.05V89.94h-6v6.11Z" transform="translate(-22.4 -51.58)"/></svg>